<svg width="64" height="64" viewBox="0 0 64 64" fill="none" xmlns="http://www.w3.org/2000/svg">
<path d="M14 6C14 5.44771 14.4477 5 15 5H42.2325C42.4796 5 42.7179 5.09144 42.9015 5.25671L43.5671 4.51714L42.9015 5.25671L47.3115 9.22569L50.7071 12.6213C50.8946 12.8089 51 13.0632 51 13.3284V32V58C51 58.5523 50.5523 59 50 59H15C14.4477 59 14 58.5523 14 58V6Z" fill="#343B47" stroke="#85B6FF" stroke-width="2"/>
<path d="M13 6C13 5.44771 13.4477 5 14 5H40.4193C41.0354 5 41.5049 5.55171 41.4064 6.15986L40.6566 10.7901C40.343 12.7267 41.942 14.4383 43.8954 14.2569L49.9075 13.6986C50.4938 13.6442 51 14.1055 51 14.6943V32V58C51 58.5523 50.5523 59 50 59H14C13.4477 59 13 58.5523 13 58V6Z" fill="#343B47" stroke="#85B6FF" stroke-width="2"/>
<path d="M29.2539 52.2188H28.1562C28.1458 52.3906 28.1172 52.5378 28.0703 52.6602C28.0234 52.7826 27.9596 52.8828 27.8789 52.9609C27.7982 53.0391 27.7005 53.0964 27.5859 53.1328C27.4714 53.1693 27.3424 53.1875 27.1992 53.1875C27.0924 53.1875 26.9948 53.1758 26.9062 53.1523C26.8203 53.1263 26.7422 53.0872 26.6719 53.0352C26.6068 52.9883 26.5482 52.9297 26.4961 52.8594C26.4466 52.7891 26.4036 52.7083 26.3672 52.6172C26.3151 52.4844 26.276 52.3294 26.25 52.1523C26.2266 51.9727 26.2148 51.7695 26.2148 51.543V50.7695C26.2148 50.6029 26.2227 50.4479 26.2383 50.3047C26.2539 50.1589 26.2786 50.026 26.3125 49.9062C26.3568 49.7526 26.4154 49.6185 26.4883 49.5039C26.5638 49.3867 26.6549 49.2969 26.7617 49.2344C26.8242 49.1979 26.8919 49.1706 26.9648 49.1523C27.0404 49.1341 27.1211 49.125 27.207 49.125C27.3685 49.125 27.5065 49.1471 27.6211 49.1914C27.7383 49.2331 27.8359 49.2956 27.9141 49.3789C27.9896 49.4648 28.0469 49.5716 28.0859 49.6992C28.1276 49.8268 28.1536 49.9753 28.1641 50.1445H29.2578C29.2318 49.8477 29.1693 49.5807 29.0703 49.3438C28.9714 49.1068 28.8359 48.9062 28.6641 48.7422C28.4922 48.5781 28.2839 48.4518 28.0391 48.3633C27.7969 48.2747 27.5195 48.2305 27.207 48.2305C26.9961 48.2305 26.7982 48.2578 26.6133 48.3125C26.431 48.3646 26.263 48.4401 26.1094 48.5391C25.9375 48.6562 25.7839 48.7995 25.6484 48.9688C25.513 49.138 25.4036 49.3307 25.3203 49.5469C25.2474 49.724 25.1927 49.9167 25.1562 50.125C25.1198 50.3307 25.1016 50.5482 25.1016 50.7773V51.543C25.1016 51.7878 25.1211 52.0195 25.1602 52.2383C25.2018 52.457 25.2604 52.6576 25.3359 52.8398C25.4141 53.0221 25.5091 53.1888 25.6211 53.3398C25.7357 53.4909 25.8659 53.6198 26.0117 53.7266C26.1706 53.8411 26.349 53.9297 26.5469 53.9922C26.7474 54.0521 26.9648 54.082 27.1992 54.082C27.4961 54.082 27.7669 54.0391 28.0117 53.9531C28.2565 53.8646 28.4674 53.7396 28.6445 53.5781C28.8216 53.4167 28.9622 53.2214 29.0664 52.9922C29.1732 52.763 29.2357 52.5052 29.2539 52.2188ZM33.0625 52.5156C33.0625 52.6172 33.0417 52.7109 33 52.7969C32.9583 52.8802 32.8984 52.9518 32.8203 53.0117C32.7422 53.0716 32.6458 53.1185 32.5312 53.1523C32.4193 53.1862 32.2904 53.2031 32.1445 53.2031C31.9805 53.2031 31.8294 53.1849 31.6914 53.1484C31.556 53.112 31.4401 53.0547 31.3438 52.9766C31.2448 52.8984 31.168 52.7982 31.1133 52.6758C31.0586 52.5534 31.0286 52.4062 31.0234 52.2344H29.9453C29.9453 52.5286 30.0013 52.7852 30.1133 53.0039C30.2279 53.2227 30.3828 53.4128 30.5781 53.5742C30.7839 53.7383 31.0247 53.8633 31.3008 53.9492C31.5794 54.0326 31.8607 54.0742 32.1445 54.0742C32.4336 54.0742 32.7005 54.0404 32.9453 53.9727C33.1901 53.9023 33.401 53.7995 33.5781 53.6641C33.7552 53.5312 33.8932 53.3685 33.9922 53.1758C34.0938 52.9805 34.1445 52.7578 34.1445 52.5078C34.1445 52.2188 34.0781 51.9635 33.9453 51.7422C33.8125 51.5208 33.6341 51.3268 33.4102 51.1602C33.2617 51.0586 33.099 50.9688 32.9219 50.8906C32.7448 50.8125 32.5586 50.7461 32.3633 50.6914C32.181 50.6419 32.0169 50.5885 31.8711 50.5312C31.7279 50.474 31.6055 50.4102 31.5039 50.3398C31.4023 50.2721 31.3242 50.1953 31.2695 50.1094C31.2174 50.0234 31.1914 49.9271 31.1914 49.8203C31.1914 49.7188 31.2109 49.625 31.25 49.5391C31.2917 49.4505 31.3516 49.3737 31.4297 49.3086C31.5078 49.2461 31.6029 49.1979 31.7148 49.1641C31.8294 49.1276 31.9596 49.1094 32.1055 49.1094C32.2643 49.1094 32.4023 49.1315 32.5195 49.1758C32.6393 49.2174 32.7396 49.276 32.8203 49.3516C32.8984 49.4297 32.957 49.5221 32.9961 49.6289C33.0378 49.7357 33.0612 49.8529 33.0664 49.9805H34.1367C34.1367 49.7253 34.0872 49.4909 33.9883 49.2773C33.8893 49.0638 33.7513 48.8789 33.5742 48.7227C33.3971 48.569 33.1849 48.4492 32.9375 48.3633C32.6927 48.2773 32.4219 48.2344 32.125 48.2344C31.8385 48.2344 31.5729 48.2721 31.3281 48.3477C31.0833 48.4206 30.8711 48.526 30.6914 48.6641C30.5117 48.8021 30.3711 48.9688 30.2695 49.1641C30.168 49.3594 30.1172 49.5768 30.1172 49.8164C30.1172 50.0247 30.1549 50.2174 30.2305 50.3945C30.3086 50.5716 30.4232 50.7331 30.5742 50.8789C30.7253 51.0247 30.9193 51.1589 31.1562 51.2812C31.3958 51.4036 31.6732 51.5078 31.9883 51.5938C32.1914 51.6484 32.3607 51.7083 32.4961 51.7734C32.6341 51.8359 32.7461 51.9049 32.832 51.9805C32.9154 52.0586 32.974 52.1419 33.0078 52.2305C33.0443 52.319 33.0625 52.4141 33.0625 52.5156ZM37.8672 52.5156C37.8672 52.6172 37.8464 52.7109 37.8047 52.7969C37.763 52.8802 37.7031 52.9518 37.625 53.0117C37.5469 53.0716 37.4505 53.1185 37.3359 53.1523C37.224 53.1862 37.0951 53.2031 36.9492 53.2031C36.7852 53.2031 36.6341 53.1849 36.4961 53.1484C36.3607 53.112 36.2448 53.0547 36.1484 52.9766C36.0495 52.8984 35.9727 52.7982 35.918 52.6758C35.8633 52.5534 35.8333 52.4062 35.8281 52.2344H34.75C34.75 52.5286 34.806 52.7852 34.918 53.0039C35.0326 53.2227 35.1875 53.4128 35.3828 53.5742C35.5885 53.7383 35.8294 53.8633 36.1055 53.9492C36.3841 54.0326 36.6654 54.0742 36.9492 54.0742C37.2383 54.0742 37.5052 54.0404 37.75 53.9727C37.9948 53.9023 38.2057 53.7995 38.3828 53.6641C38.5599 53.5312 38.6979 53.3685 38.7969 53.1758C38.8984 52.9805 38.9492 52.7578 38.9492 52.5078C38.9492 52.2188 38.8828 51.9635 38.75 51.7422C38.6172 51.5208 38.4388 51.3268 38.2148 51.1602C38.0664 51.0586 37.9036 50.9688 37.7266 50.8906C37.5495 50.8125 37.3633 50.7461 37.168 50.6914C36.9857 50.6419 36.8216 50.5885 36.6758 50.5312C36.5326 50.474 36.4102 50.4102 36.3086 50.3398C36.207 50.2721 36.1289 50.1953 36.0742 50.1094C36.0221 50.0234 35.9961 49.9271 35.9961 49.8203C35.9961 49.7188 36.0156 49.625 36.0547 49.5391C36.0964 49.4505 36.1562 49.3737 36.2344 49.3086C36.3125 49.2461 36.4076 49.1979 36.5195 49.1641C36.6341 49.1276 36.7643 49.1094 36.9102 49.1094C37.069 49.1094 37.207 49.1315 37.3242 49.1758C37.444 49.2174 37.5443 49.276 37.625 49.3516C37.7031 49.4297 37.7617 49.5221 37.8008 49.6289C37.8424 49.7357 37.8659 49.8529 37.8711 49.9805H38.9414C38.9414 49.7253 38.8919 49.4909 38.793 49.2773C38.694 49.0638 38.556 48.8789 38.3789 48.7227C38.2018 48.569 37.9896 48.4492 37.7422 48.3633C37.4974 48.2773 37.2266 48.2344 36.9297 48.2344C36.6432 48.2344 36.3776 48.2721 36.1328 48.3477C35.888 48.4206 35.6758 48.526 35.4961 48.6641C35.3164 48.8021 35.1758 48.9688 35.0742 49.1641C34.9727 49.3594 34.9219 49.5768 34.9219 49.8164C34.9219 50.0247 34.9596 50.2174 35.0352 50.3945C35.1133 50.5716 35.2279 50.7331 35.3789 50.8789C35.5299 51.0247 35.724 51.1589 35.9609 51.2812C36.2005 51.4036 36.4779 51.5078 36.793 51.5938C36.9961 51.6484 37.1654 51.7083 37.3008 51.7734C37.4388 51.8359 37.5508 51.9049 37.6367 51.9805C37.7201 52.0586 37.7786 52.1419 37.8125 52.2305C37.849 52.319 37.8672 52.4141 37.8672 52.5156Z" fill="#85B6FF"/>
<path d="M25 22.0046C27.3367 22.0023 29.6739 21.9959 32.0106 22.004C32.0411 24.5144 32.0028 27.0247 32.0363 29.5339C31.1077 29.5537 30.1786 29.5356 29.25 29.5403C28.0912 29.5421 26.9331 29.5602 25.7743 29.5643C25.7127 28.7189 25.5728 27.8765 25.5567 27.0294C25.7032 26.9255 25.8783 26.8718 26.0422 26.8005C27.9525 25.985 29.8778 25.2003 31.7798 24.3673C29.6058 24.3036 27.4287 24.3854 25.2547 24.3065C25.1459 23.5418 25.0401 22.7758 25 22.0046Z" fill="white"/>
<path d="M25.9471 31.0436C26.6497 31.0331 27.3522 31.0395 28.0542 31.0354C28.1989 31.0378 28.3472 31.0337 28.4871 31.0757C28.5481 31.7448 28.5959 32.4155 28.6646 33.084C29.1484 33.2212 29.6512 33.2755 30.1421 33.38C30.7645 33.488 31.3816 33.624 32.0064 33.7145C32.0662 34.5622 31.9616 35.4157 32.0614 36.2605C32.0435 36.264 32.007 36.271 31.9891 36.2745C31.8581 36.285 31.7308 36.2394 31.6046 36.2132C30.5439 35.9364 29.4718 35.7023 28.4129 35.4209C27.7217 35.2371 27.0281 35.0642 26.3358 34.8879C26.1343 33.6141 26.0159 32.3297 25.9471 31.0436Z" fill="white"/>
<path d="M32.0106 22.0041C34.2552 22.0157 36.4992 22.0006 38.7432 22.0181C38.7109 22.6725 38.6248 23.3229 38.5763 23.9767C38.5542 24.1828 38.5572 24.3936 38.501 24.595C38.3581 24.7036 38.1847 24.7643 38.0221 24.8372C37.179 25.2021 36.3288 25.5507 35.4887 25.9225C34.6133 26.3049 33.7165 26.6447 32.8638 27.0732C33.0934 27.0896 33.3242 27.0907 33.555 27.0896C35.1395 27.0831 36.7246 27.0878 38.3091 27.0796C38.1435 29.6653 37.8822 32.2445 37.6466 34.8249C35.7835 35.299 33.9287 35.8028 32.0614 36.2605C31.9616 35.4157 32.0662 34.5622 32.0064 33.7145C32.346 33.5587 32.7126 33.4746 33.0695 33.3683C33.7392 33.1722 34.4136 32.993 35.0779 32.781C35.1353 31.6992 35.2274 30.6192 35.2878 29.5374C34.2038 29.5444 33.1197 29.5158 32.0363 29.5339C32.0028 27.0248 32.0411 24.5144 32.0106 22.0041Z" fill="white"/>
</svg>
