<svg width="64" height="64" viewBox="0 0 64 64" fill="none" xmlns="http://www.w3.org/2000/svg">
<path d="M50 59H14C13.4477 59 13 58.5523 13 58V6C13 5.44771 13.4477 5 14 5H41.9887C42.2396 5 42.4814 5.09437 42.666 5.26437L50.6774 12.6415C50.883 12.8308 51 13.0976 51 13.3771V32V58C51 58.5523 50.5523 59 50 59Z" fill="#343B47" stroke="#115ABE" stroke-width="2"/>
<path d="M22.3789 54H23.9062C24.1589 54 24.3958 53.9688 24.6172 53.9062C24.8411 53.8438 25.0456 53.7539 25.2305 53.6367C25.3893 53.5378 25.5352 53.4154 25.668 53.2695C25.8008 53.1211 25.9167 52.9596 26.0156 52.7852C26.1198 52.5898 26.2005 52.375 26.2578 52.1406C26.3151 51.9062 26.3438 51.6576 26.3438 51.3945V50.9258C26.3438 50.6523 26.3125 50.3945 26.25 50.1523C26.1901 49.9102 26.1042 49.6888 25.9922 49.4883C25.8958 49.3242 25.7826 49.1732 25.6523 49.0352C25.5247 48.8945 25.3789 48.776 25.2148 48.6797C25.0273 48.5625 24.819 48.4727 24.5898 48.4102C24.3607 48.3451 24.1146 48.3125 23.8516 48.3125H22.3789V54ZM23.4844 49.2031H23.8516C23.9844 49.2031 24.1068 49.2188 24.2188 49.25C24.3333 49.2786 24.4375 49.3203 24.5312 49.375C24.6536 49.4479 24.7604 49.5417 24.8516 49.6562C24.9453 49.7708 25.0208 49.901 25.0781 50.0469C25.125 50.1693 25.1602 50.3047 25.1836 50.4531C25.2096 50.599 25.2227 50.7539 25.2227 50.918V51.3945C25.2227 51.569 25.2096 51.7318 25.1836 51.8828C25.1602 52.0312 25.125 52.1667 25.0781 52.2891C25.0208 52.4297 24.9518 52.5534 24.8711 52.6602C24.793 52.7643 24.7044 52.8503 24.6055 52.918C24.5091 52.9831 24.4023 53.0326 24.2852 53.0664C24.168 53.1003 24.0417 53.1172 23.9062 53.1172H23.4844V49.2031ZM31.1758 51.5742V50.7461C31.1758 50.4883 31.151 50.2448 31.1016 50.0156C31.0547 49.7865 30.9857 49.5755 30.8945 49.3828C30.8112 49.2135 30.7109 49.0586 30.5938 48.918C30.4792 48.7773 30.3451 48.6576 30.1914 48.5586C30.0378 48.4544 29.8646 48.375 29.6719 48.3203C29.4818 48.263 29.2773 48.2344 29.0586 48.2344C28.8424 48.2344 28.6419 48.2617 28.457 48.3164C28.2721 48.3711 28.1055 48.4492 27.957 48.5508C27.806 48.6549 27.6719 48.7799 27.5547 48.9258C27.4401 49.0716 27.3424 49.2344 27.2617 49.4141C27.1784 49.6042 27.1146 49.8112 27.0703 50.0352C27.0286 50.2591 27.0078 50.4961 27.0078 50.7461V51.5742C27.0078 51.8086 27.026 52.0312 27.0625 52.2422C27.1016 52.4531 27.1576 52.6484 27.2305 52.8281C27.3112 53.0234 27.4115 53.1992 27.5312 53.3555C27.651 53.5091 27.7865 53.6406 27.9375 53.75C28.0911 53.8542 28.2617 53.9349 28.4492 53.9922C28.6367 54.0495 28.8411 54.0781 29.0625 54.0781C29.2708 54.0781 29.4648 54.0521 29.6445 54C29.8268 53.9505 29.9935 53.8802 30.1445 53.7891C30.3112 53.6849 30.4596 53.5547 30.5898 53.3984C30.7201 53.2422 30.8294 53.0703 30.918 52.8828C31.0013 52.6953 31.0651 52.4922 31.1094 52.2734C31.1536 52.0521 31.1758 51.819 31.1758 51.5742ZM30.0625 50.7383V51.5742C30.0625 51.7148 30.0547 51.8503 30.0391 51.9805C30.026 52.1107 30.0052 52.2305 29.9766 52.3398C29.9401 52.4805 29.8906 52.6068 29.8281 52.7188C29.7682 52.8281 29.694 52.9193 29.6055 52.9922C29.5352 53.0521 29.4544 53.0977 29.3633 53.1289C29.2721 53.1602 29.1719 53.1758 29.0625 53.1758C28.9479 53.1758 28.8451 53.1589 28.7539 53.125C28.6654 53.0911 28.5859 53.043 28.5156 52.9805C28.4401 52.9102 28.3737 52.819 28.3164 52.707C28.2617 52.5924 28.2201 52.4661 28.1914 52.3281C28.1654 52.2188 28.1471 52.1003 28.1367 51.9727C28.1263 51.8451 28.1211 51.7122 28.1211 51.5742V50.7383C28.1211 50.5924 28.1263 50.4531 28.1367 50.3203C28.1497 50.1875 28.1693 50.0651 28.1953 49.9531C28.2292 49.8073 28.276 49.6797 28.3359 49.5703C28.3984 49.4609 28.474 49.3698 28.5625 49.2969C28.6276 49.2474 28.7005 49.2096 28.7812 49.1836C28.8646 49.1576 28.957 49.1445 29.0586 49.1445C29.1654 49.1445 29.2617 49.1589 29.3477 49.1875C29.4362 49.2161 29.5156 49.2565 29.5859 49.3086C29.6745 49.3789 29.7513 49.4701 29.8164 49.582C29.8815 49.6914 29.9336 49.8164 29.9727 49.957C30.0039 50.069 30.026 50.1914 30.0391 50.3242C30.0547 50.4544 30.0625 50.5924 30.0625 50.7383ZM35.9609 52.2188H34.8633C34.8529 52.3906 34.8242 52.5378 34.7773 52.6602C34.7305 52.7826 34.6667 52.8828 34.5859 52.9609C34.5052 53.0391 34.4076 53.0964 34.293 53.1328C34.1784 53.1693 34.0495 53.1875 33.9062 53.1875C33.7995 53.1875 33.7018 53.1758 33.6133 53.1523C33.5273 53.1263 33.4492 53.0872 33.3789 53.0352C33.3138 52.9883 33.2552 52.9297 33.2031 52.8594C33.1536 52.7891 33.1107 52.7083 33.0742 52.6172C33.0221 52.4844 32.9831 52.3294 32.957 52.1523C32.9336 51.9727 32.9219 51.7695 32.9219 51.543V50.7695C32.9219 50.6029 32.9297 50.4479 32.9453 50.3047C32.9609 50.1589 32.9857 50.026 33.0195 49.9062C33.0638 49.7526 33.1224 49.6185 33.1953 49.5039C33.2708 49.3867 33.362 49.2969 33.4688 49.2344C33.5312 49.1979 33.599 49.1706 33.6719 49.1523C33.7474 49.1341 33.8281 49.125 33.9141 49.125C34.0755 49.125 34.2135 49.1471 34.3281 49.1914C34.4453 49.2331 34.543 49.2956 34.6211 49.3789C34.6966 49.4648 34.7539 49.5716 34.793 49.6992C34.8346 49.8268 34.8607 49.9753 34.8711 50.1445H35.9648C35.9388 49.8477 35.8763 49.5807 35.7773 49.3438C35.6784 49.1068 35.543 48.9062 35.3711 48.7422C35.1992 48.5781 34.9909 48.4518 34.7461 48.3633C34.5039 48.2747 34.2266 48.2305 33.9141 48.2305C33.7031 48.2305 33.5052 48.2578 33.3203 48.3125C33.138 48.3646 32.9701 48.4401 32.8164 48.5391C32.6445 48.6562 32.4909 48.7995 32.3555 48.9688C32.2201 49.138 32.1107 49.3307 32.0273 49.5469C31.9544 49.724 31.8997 49.9167 31.8633 50.125C31.8268 50.3307 31.8086 50.5482 31.8086 50.7773V51.543C31.8086 51.7878 31.8281 52.0195 31.8672 52.2383C31.9089 52.457 31.9674 52.6576 32.043 52.8398C32.1211 53.0221 32.2161 53.1888 32.3281 53.3398C32.4427 53.4909 32.5729 53.6198 32.7188 53.7266C32.8776 53.8411 33.056 53.9297 33.2539 53.9922C33.4544 54.0521 33.6719 54.082 33.9062 54.082C34.2031 54.082 34.474 54.0391 34.7188 53.9531C34.9635 53.8646 35.1745 53.7396 35.3516 53.5781C35.5286 53.4167 35.6693 53.2214 35.7734 52.9922C35.8802 52.763 35.9427 52.5052 35.9609 52.2188ZM38.7422 50.3516L37.7461 48.3125H36.4648L38.0625 51.1328L36.4219 54H37.7188L38.7578 51.9297L39.8008 54H41.082L39.4414 51.1328L41.043 48.3125H39.7539L38.7422 50.3516Z" fill="#115ABE"/>
<line x1="20" y1="43.5" x2="44" y2="43.5" stroke="#115ABE"/>
<line x1="20" y1="39.5" x2="44" y2="39.5" stroke="#115ABE"/>
<line x1="20" y1="35.5" x2="44" y2="35.5" stroke="#115ABE"/>
<line x1="20" y1="31.5" x2="44" y2="31.5" stroke="#115ABE"/>
<line x1="20" y1="27.5" x2="44" y2="27.5" stroke="#115ABE"/>
<line x1="20" y1="23.5" x2="44" y2="23.5" stroke="#115ABE"/>
<line x1="20" y1="19.5" x2="39" y2="19.5" stroke="#115ABE"/>
<path d="M41 5L40.2907 11.0286C40.1414 12.2978 41.2045 13.3796 42.4761 13.2524L50 12.5" stroke="#115ABE" stroke-width="2"/>
</svg>
