<svg width="64" height="64" viewBox="0 0 64 64" fill="none" xmlns="http://www.w3.org/2000/svg">
<path d="M13 6C13 5.44771 13.4477 5 14 5H41.9887C42.2396 5 42.4814 5.09437 42.666 5.26437L50.6774 12.6415C50.883 12.8308 51 13.0976 51 13.3771V32V58C51 58.5523 50.5523 59 50 59H14C13.4477 59 13 58.5523 13 58V6Z" fill="#343B47" stroke="white" stroke-width="2"/>
<path d="M30.9805 35.1152H33.1777C33.1777 34.8809 33.1836 34.6816 33.1953 34.5176C33.207 34.3477 33.2363 34.1924 33.2832 34.0518C33.3242 33.9111 33.3945 33.7734 33.4941 33.6387C33.5938 33.5039 33.7314 33.3486 33.9072 33.1729C34.1943 32.9209 34.4785 32.6631 34.7598 32.3994C35.0469 32.1299 35.3018 31.8457 35.5244 31.5469C35.7471 31.2539 35.9287 30.9375 36.0693 30.5977C36.21 30.252 36.2803 29.8711 36.2803 29.4551C36.2803 28.8926 36.1865 28.3975 35.999 27.9697C35.8115 27.542 35.542 27.1816 35.1904 26.8887C34.833 26.6016 34.3965 26.3848 33.8809 26.2383C33.3652 26.0918 32.7822 26.0186 32.1318 26.0186C31.5518 26.0186 31.0127 26.0918 30.5146 26.2383C30.0166 26.3789 29.583 26.5957 29.2139 26.8887C28.8447 27.1816 28.5518 27.5508 28.335 27.9961C28.1182 28.4355 28.0068 28.9541 28.001 29.5518H30.4531C30.459 29.2822 30.5088 29.0508 30.6025 28.8574C30.7021 28.6641 30.8311 28.5059 30.9893 28.3828C31.1416 28.2598 31.3174 28.1719 31.5166 28.1191C31.7158 28.0605 31.9209 28.0312 32.1318 28.0312C32.4014 28.0312 32.6387 28.0605 32.8438 28.1191C33.0547 28.1777 33.2334 28.2656 33.3799 28.3828C33.5205 28.5117 33.6289 28.6758 33.7051 28.875C33.7812 29.0684 33.8193 29.2998 33.8193 29.5693C33.8193 29.792 33.7695 30.0146 33.6699 30.2373C33.5703 30.46 33.4414 30.6768 33.2832 30.8877C33.1191 31.1045 32.9375 31.3154 32.7383 31.5205C32.5391 31.7197 32.3398 31.9102 32.1406 32.0918C31.8652 32.3086 31.6514 32.5137 31.499 32.707C31.3467 32.8945 31.2324 33.0996 31.1562 33.3223C31.0801 33.5508 31.0303 33.8057 31.0068 34.0869C30.9893 34.3682 30.9805 34.7109 30.9805 35.1152ZM30.6201 37.7783C30.6201 38.1533 30.7461 38.4697 30.998 38.7275C31.25 38.9795 31.5986 39.1055 32.0439 39.1055C32.4775 39.1055 32.8232 38.9795 33.0811 38.7275C33.3447 38.4697 33.4766 38.1533 33.4766 37.7783C33.4766 37.3916 33.3447 37.0693 33.0811 36.8115C32.8232 36.5479 32.4775 36.416 32.0439 36.416C31.5986 36.416 31.25 36.5479 30.998 36.8115C30.7461 37.0693 30.6201 37.3916 30.6201 37.7783Z" fill="white"/>
<path d="M42 5L41.2907 11.0286C41.1414 12.2978 42.2045 13.3796 43.4761 13.2524L51 12.5" stroke="white" stroke-width="2"/>
</svg>
