<svg width="64" height="64" viewBox="0 0 64 64" fill="none" xmlns="http://www.w3.org/2000/svg">
<path d="M13 6C13 5.44771 13.4477 5 14 5H38.5C39.0523 5 39.5 5.44772 39.5 6V10.5C39.5 12.1569 40.8431 13.5 42.5 13.5H49C49.5523 13.5 50 13.9477 50 14.5V32V58C50 58.5523 49.5523 59 49 59H14C13.4477 59 13 58.5523 13 58V6Z" fill="#343B47" stroke="white" stroke-width="2"/>
<path d="M13 6C13 5.44771 13.4477 5 14 5H38.6667H50C50.5523 5 51 5.44772 51 6V17V32V58C51 58.5523 50.5523 59 50 59H14C13.4477 59 13 58.5523 13 58V6Z" fill="#343B47" stroke="white" stroke-width="2"/>
<rect x="14" y="43" width="35" height="2" fill="white"/>
<path d="M30.5781 28.2109C30.4896 29.4349 30.0365 30.3984 29.2188 31.1016C28.4062 31.8047 27.3333 32.1562 26 32.1562C24.5417 32.1562 23.3932 31.6667 22.5547 30.6875C21.7214 29.7031 21.3047 28.3542 21.3047 26.6406V25.9453C21.3047 24.8516 21.4974 23.888 21.8828 23.0547C22.2682 22.2214 22.8177 21.5833 23.5312 21.1406C24.25 20.6927 25.0833 20.4688 26.0312 20.4688C27.3438 20.4688 28.401 20.8203 29.2031 21.5234C30.0052 22.2266 30.4688 23.2135 30.5938 24.4844H28.25C28.1927 23.75 27.987 23.2188 27.6328 22.8906C27.2839 22.5573 26.75 22.3906 26.0312 22.3906C25.25 22.3906 24.6641 22.6719 24.2734 23.2344C23.888 23.7917 23.6901 24.6589 23.6797 25.8359V26.6953C23.6797 27.9245 23.8646 28.8229 24.2344 29.3906C24.6094 29.9583 25.1979 30.2422 26 30.2422C26.724 30.2422 27.263 30.0781 27.6172 29.75C27.9766 29.4167 28.1823 28.9036 28.2344 28.2109H30.5781ZM32.0781 30.8906C32.0781 30.5312 32.1979 30.2396 32.4375 30.0156C32.6823 29.7917 32.987 29.6797 33.3516 29.6797C33.7214 29.6797 34.026 29.7917 34.2656 30.0156C34.5104 30.2396 34.6328 30.5312 34.6328 30.8906C34.6328 31.2448 34.513 31.5339 34.2734 31.7578C34.0339 31.9766 33.7266 32.0859 33.3516 32.0859C32.9818 32.0859 32.6771 31.9766 32.4375 31.7578C32.1979 31.5339 32.0781 31.2448 32.0781 30.8906ZM32.0781 24.4922C32.0781 24.1328 32.1979 23.8411 32.4375 23.6172C32.6823 23.3932 32.987 23.2812 33.3516 23.2812C33.7214 23.2812 34.026 23.3932 34.2656 23.6172C34.5104 23.8411 34.6328 24.1328 34.6328 24.4922C34.6328 24.8464 34.513 25.1354 34.2734 25.3594C34.0339 25.5781 33.7266 25.6875 33.3516 25.6875C32.9818 25.6875 32.6771 25.5781 32.4375 25.3594C32.1979 25.1354 32.0781 24.8464 32.0781 24.4922ZM35.6172 20.625H37.9219L42.6719 32.9766H40.3594L35.6172 20.625Z" fill="white"/>
<path d="M28.3047 52.5078V51.6406H25.9688V50.207H28.6875V49.3125H24.8672V55H28.6992V54.1133H25.9688V52.5078H28.3047ZM31.5352 51.3516L30.5391 49.3125H29.2578L30.8555 52.1328L29.2148 55H30.5117L31.5508 52.9297L32.5938 55H33.875L32.2344 52.1328L33.8359 49.3125H32.5469L31.5352 51.3516ZM37.9141 52.5078V51.6406H35.5781V50.207H38.2969V49.3125H34.4766V55H38.3086V54.1133H35.5781V52.5078H37.9141Z" fill="white"/>
<path d="M44.1515 7.27273C44.1515 7.1221 44.2736 7 44.4242 7H45.5758C45.7264 7 45.8485 7.1221 45.8485 7.27273V8.69697H44.1515V7.27273Z" fill="white"/>
<path d="M47.0356 7.76444C47.1421 7.65794 47.3148 7.65793 47.4213 7.76444L48.2355 8.57869C48.3421 8.68519 48.3421 8.85787 48.2355 8.96438L47.2285 9.97147L46.0285 8.77153L47.0356 7.76444Z" fill="white"/>
<path d="M48.2355 13.0356C48.342 13.1421 48.342 13.3148 48.2355 13.4213L47.4213 14.2355C47.3148 14.3421 47.1421 14.3421 47.0356 14.2355L46.0285 13.2285L47.2285 12.0285L48.2355 13.0356Z" fill="white"/>
<path d="M48.7273 10.1515C48.8779 10.1515 49 10.2736 49 10.4242L49 11.5758C49 11.7264 48.8779 11.8485 48.7273 11.8485L47.303 11.8485L47.303 10.1515L48.7273 10.1515Z" fill="white"/>
<path d="M45.8485 14.7273C45.8485 14.8779 45.7264 15 45.5758 15L44.4242 15C44.2736 15 44.1515 14.8779 44.1515 14.7273L44.1515 13.303L45.8485 13.303L45.8485 14.7273Z" fill="white"/>
<path d="M42.9644 14.2356C42.8579 14.3421 42.6852 14.3421 42.5787 14.2356L41.7645 13.4213C41.6579 13.3148 41.6579 13.1421 41.7645 13.0356L42.7715 12.0285L43.9715 13.2285L42.9644 14.2356Z" fill="white"/>
<path d="M41.7645 8.96439C41.658 8.85789 41.658 8.6852 41.7645 8.5787L42.5787 7.76445C42.6852 7.65795 42.8579 7.65795 42.9644 7.76445L43.9715 8.77155L42.7715 9.97148L41.7645 8.96439Z" fill="white"/>
<path d="M41.2727 11.8485C41.1221 11.8485 41 11.7264 41 11.5758L41 10.4242C41 10.2736 41.1221 10.1515 41.2727 10.1515L42.697 10.1515L42.697 11.8485L41.2727 11.8485Z" fill="white"/>
<circle cx="45" cy="11" r="2.11288" stroke="white" stroke-width="1.35"/>
</svg>
