<svg width="64" height="64" viewBox="0 0 64 64" fill="none" xmlns="http://www.w3.org/2000/svg">
<path d="M45 12H21C20.4477 12 20 11.5523 20 11V6C20 5.44772 20.4477 5 21 5H27H31H44.67C44.9838 5 45.2794 5.14731 45.4684 5.39785L45.7984 5.83536C45.9292 6.00884 46 6.22022 46 6.43751V8.5V11C46 11.5523 45.5523 12 45 12Z" fill="#343B47" stroke="#DFC900" stroke-width="2"/>
<path d="M50 59H14C13.4477 59 13 58.5523 13 58V6C13 5.44771 13.4477 5 14 5H32.0906C32.5132 5 32.8902 5.26567 33.0323 5.66366L34.5842 10.009C35.0106 11.203 36.1416 12 37.4094 12H50C50.5523 12 51 12.4477 51 13V15V32V58C51 58.5523 50.5523 59 50 59Z" fill="#343B47" stroke="#DFC900" stroke-width="2"/>
<path d="M27.5 52C27.5 49.5147 29.5147 47.5 32 47.5H49.5V58.5H27.5V52Z" fill="#DFC900" stroke="#DFC900"/>
<path d="M32.7812 57H34.3086C34.5612 57 34.7982 56.9688 35.0195 56.9062C35.2435 56.8438 35.4479 56.7539 35.6328 56.6367C35.7917 56.5378 35.9375 56.4154 36.0703 56.2695C36.2031 56.1211 36.319 55.9596 36.418 55.7852C36.5221 55.5898 36.6029 55.375 36.6602 55.1406C36.7174 54.9062 36.7461 54.6576 36.7461 54.3945V53.9258C36.7461 53.6523 36.7148 53.3945 36.6523 53.1523C36.5924 52.9102 36.5065 52.6888 36.3945 52.4883C36.2982 52.3242 36.1849 52.1732 36.0547 52.0352C35.9271 51.8945 35.7812 51.776 35.6172 51.6797C35.4297 51.5625 35.2214 51.4727 34.9922 51.4102C34.763 51.3451 34.5169 51.3125 34.2539 51.3125H32.7812V57ZM33.8867 52.2031H34.2539C34.3867 52.2031 34.5091 52.2188 34.6211 52.25C34.7357 52.2786 34.8398 52.3203 34.9336 52.375C35.056 52.4479 35.1628 52.5417 35.2539 52.6562C35.3477 52.7708 35.4232 52.901 35.4805 53.0469C35.5273 53.1693 35.5625 53.3047 35.5859 53.4531C35.612 53.599 35.625 53.7539 35.625 53.918V54.3945C35.625 54.569 35.612 54.7318 35.5859 54.8828C35.5625 55.0312 35.5273 55.1667 35.4805 55.2891C35.4232 55.4297 35.3542 55.5534 35.2734 55.6602C35.1953 55.7643 35.1068 55.8503 35.0078 55.918C34.9115 55.9831 34.8047 56.0326 34.6875 56.0664C34.5703 56.1003 34.444 56.1172 34.3086 56.1172H33.8867V52.2031ZM37.8516 51.3125V52.1992H38.9336V56.1172H37.8516V57H41.1406V56.1172H40.0312V52.1992H41.1406V51.3125H37.8516ZM44.3438 54.875L45.4141 57H46.5898V56.9492L45.3672 54.6016C45.5234 54.5312 45.6641 54.4479 45.7891 54.3516C45.9167 54.2552 46.026 54.1419 46.1172 54.0117C46.2057 53.8841 46.2734 53.7396 46.3203 53.5781C46.3698 53.4141 46.3945 53.2305 46.3945 53.0273C46.3945 52.7461 46.3451 52.4987 46.2461 52.2852C46.1497 52.0716 46.0117 51.8932 45.832 51.75C45.6497 51.6068 45.431 51.4987 45.1758 51.4258C44.9206 51.3503 44.6354 51.3125 44.3203 51.3125H42.4141V57H43.5117V54.875H44.3438ZM43.5117 53.9844V52.2031H44.3203C44.4714 52.2031 44.6055 52.2214 44.7227 52.2578C44.8398 52.2943 44.9388 52.3464 45.0195 52.4141C45.1107 52.4896 45.1784 52.5859 45.2227 52.7031C45.2695 52.8177 45.293 52.9505 45.293 53.1016C45.293 53.2266 45.2747 53.3398 45.2383 53.4414C45.2044 53.543 45.1536 53.6302 45.0859 53.7031C45.0052 53.7943 44.8997 53.8646 44.7695 53.9141C44.6419 53.9609 44.4935 53.9844 44.3242 53.9844H43.5117Z" fill="white"/>
</svg>
