<svg width="64" height="64" viewBox="0 0 64 64" fill="none" xmlns="http://www.w3.org/2000/svg">
<path d="M14 6C14 5.44771 14.4477 5 15 5H42.2325C42.4796 5 42.7179 5.09144 42.9015 5.25671L43.5671 4.51714L42.9015 5.25671L47.3115 9.22569L50.7071 12.6213C50.8946 12.8089 51 13.0632 51 13.3284V32V58C51 58.5523 50.5523 59 50 59H15C14.4477 59 14 58.5523 14 58V6Z" fill="#343B47" stroke="#FF4D00" stroke-width="2"/>
<path d="M13 6C13 5.44771 13.4477 5 14 5H40.4193C41.0354 5 41.5049 5.55171 41.4064 6.15986L40.6566 10.7901C40.343 12.7267 41.942 14.4383 43.8954 14.2569L49.9075 13.6986C50.4938 13.6442 51 14.1055 51 14.6943V32V58C51 58.5523 50.5523 59 50 59H14C13.4477 59 13 58.5523 13 58V6Z" fill="#343B47" stroke="#FF4D00" stroke-width="2"/>
<path d="M26.6562 54V48.3125H25.5703V50.6445H23.9609V48.3125H22.8711V54H23.9609V51.5352H25.5703V54H26.6562ZM31.8867 49.207V48.3125H27.3008V49.207H29.0312V54H30.1328V49.207H31.8867ZM33.8594 48.3125H32.4961V54H33.5039V52.3164L33.457 49.7617L34.125 52.125H34.668L35.4141 49.6562L35.3672 52.3164V54H36.375V48.3125H35.0117L34.3984 50.4492L33.8594 48.3125ZM38.4922 53.1133V48.3125H37.3906V54H41.1562V53.1133H38.4922Z" fill="#FF4D00"/>
<path d="M32 28.125H29.0703L28.875 25.8594H32V23.6719H31.9609H26.4531L26.4922 24.2578L27.0391 30.3516H32V28.125ZM32 33.8672H31.9609L29.5 33.2031L29.3438 31.4453H28.1719H27.1562L27.4297 34.9219L31.9609 36.1719H32V33.8672Z" fill="#EBEBEB"/>
<path d="M31.9609 28.125V30.3516H34.6953L34.4219 33.2031L31.9609 33.8672V36.1719L36.4922 34.9219L36.5312 34.5312L37.0391 28.7109L37.1172 28.125H36.4922H31.9609ZM31.9609 23.6719V25.0391V25.8594H37.3125L37.3516 25.3906L37.4688 24.2578L37.5078 23.6719H31.9609Z" fill="white"/>
</svg>
