<svg width="64" height="64" viewBox="0 0 64 64" fill="none" xmlns="http://www.w3.org/2000/svg">
<path d="M50 59H14C13.4477 59 13 58.5523 13 58V6C13 5.44771 13.4477 5 14 5H41.9887C42.2396 5 42.4814 5.09437 42.666 5.26437L50.6774 12.6415C50.883 12.8308 51 13.0976 51 13.3771V32V58C51 58.5523 50.5523 59 50 59Z" fill="#343B47" stroke="#00FF38" stroke-width="2"/>
<path d="M41.1356 5.46705L40.3614 10.8807C40.1776 12.166 41.2483 13.2831 42.5403 13.1539L50 12.4079" stroke="#00FF38" stroke-width="2"/>
<circle cx="22.8373" cy="25" r="2" fill="#FFC700"/>
<path d="M22 25.5V23" stroke="black"/>
<path d="M22.8373 25V20M22.8373 25H27.8373M22.8373 25V30M22.8373 25L18.8373 21M22.8373 25H17.8373M22.8373 25L26.3373 21M22.8373 25L26.3373 29M22.8373 25L18.8373 29" stroke="#FFC700"/>
<path d="M23.8373 39L26.8373 34L29.8373 37L34.8373 29L41.8373 41" stroke="#00FF38"/>
</svg>
