<svg width="64" height="64" viewBox="0 0 64 64" fill="none" xmlns="http://www.w3.org/2000/svg">
<path d="M50 59H14C13.4477 59 13 58.5523 13 58V6C13 5.44771 13.4477 5 14 5H41.9887C42.2396 5 42.4814 5.09437 42.666 5.26437L50.6774 12.6415C50.883 12.8308 51 13.0976 51 13.3771V32V58C51 58.5523 50.5523 59 50 59Z" fill="#343B47" stroke="#F3920E" stroke-width="2"/>
<path d="M42.0251 4.79817L41.2197 9.99713C41.0238 11.2619 42.0498 12.3827 43.3269 12.299L49.6103 11.8872" stroke="#F3920E" stroke-width="2"/>
<path d="M25.5859 47.4089V51.3503C25.5859 51.4831 25.5651 51.6081 25.5234 51.7253C25.4844 51.8399 25.4284 51.9389 25.3555 52.0222C25.2826 52.1055 25.194 52.1719 25.0898 52.2214C24.9857 52.2683 24.8711 52.2917 24.7461 52.2917C24.5898 52.2917 24.457 52.2709 24.3477 52.2292C24.2383 52.1876 24.1497 52.1237 24.082 52.0378C24.0299 51.9675 23.9909 51.8816 23.9648 51.78C23.9388 51.6784 23.9258 51.5599 23.9258 51.4245H22.8242C22.8268 51.7188 22.875 51.9753 22.9688 52.1941C23.0625 52.4128 23.194 52.5938 23.3633 52.737C23.5299 52.8829 23.7305 52.9922 23.9648 53.0652C24.1992 53.1381 24.4596 53.1745 24.7461 53.1745C25.0169 53.1745 25.2695 53.1303 25.5039 53.0417C25.7409 52.9532 25.9466 52.8282 26.1211 52.6667C26.2956 52.5053 26.4323 52.3139 26.5312 52.0925C26.6328 51.8685 26.6849 51.6211 26.6875 51.3503L26.6836 47.4089H25.5859ZM30.5039 51.9089L30.8359 53.0964H31.9922L30.1641 47.4089H29.168L27.3047 53.0964H28.4609L28.7969 51.9089H30.5039ZM29.0664 50.9753L29.6641 48.8816L30.2461 50.9753H29.0664ZM33.8398 53.0964H34.957L36.6797 47.4089H35.4688L34.5 51.1198L34.3945 51.5066L34.2969 51.1237L33.332 47.4089H32.1211L33.8398 53.0964ZM40.1133 51.9089L40.4453 53.0964H41.6016L39.7734 47.4089H38.7773L36.9141 53.0964H38.0703L38.4062 51.9089H40.1133ZM38.6758 50.9753L39.2734 48.8816L39.8555 50.9753H38.6758Z" fill="#F3920E"/>
<g clip-path="url(#clip0)">
<path d="M27.4378 38.8085H34.0378C35.8597 38.8085 37.3378 37.3808 37.3378 35.621H38.4378C40.8647 35.621 42.8378 33.7152 42.8378 31.371C42.8378 29.0269 40.8647 27.121 38.4378 27.121H24.9628C24.5056 27.121 24.1378 27.4763 24.1378 27.9179V35.621C24.1378 37.3808 25.6159 38.8085 27.4378 38.8085ZM38.4378 29.246C39.6512 29.246 40.6378 30.199 40.6378 31.371C40.6378 32.5431 39.6512 33.496 38.4378 33.496H37.3378V29.246H38.4378ZM40.0775 41.996H22.4981C20.8619 41.996 20.4012 39.871 21.2606 39.871H41.3116C42.1709 39.871 41.7172 41.996 40.0775 41.996V41.996Z" fill="#016E97"/>
</g>
<path d="M34.3545 25.1661C34.7481 24.8053 35.5353 23.572 35.5353 21.5252C35.5353 19.4784 36.2805 18.8994 36.6532 18.8657" stroke="#F3920E"/>
<path d="M30.8507 25.1661C31.2443 24.8053 32.0315 23.572 32.0315 21.5252C32.0315 19.4784 32.7767 18.8994 33.1493 18.8657" stroke="#F3920E"/>
<path d="M27.3468 25.1661C27.7404 24.8053 28.5277 23.572 28.5277 21.5252C28.5277 19.4784 29.2729 18.8994 29.6455 18.8657" stroke="#F3920E"/>
<defs>
<clipPath id="clip0">
<rect width="22" height="17" fill="white" transform="translate(21 27.0964)"/>
</clipPath>
</defs>
</svg>
