<svg width="64" height="64" viewBox="0 0 64 64" fill="none" xmlns="http://www.w3.org/2000/svg">
<path d="M14 6C14 5.44771 14.4477 5 15 5H42.2325C42.4796 5 42.7179 5.09144 42.9015 5.25671L43.5671 4.51714L42.9015 5.25671L47.3115 9.22569L50.7071 12.6213C50.8946 12.8089 51 13.0632 51 13.3284V32V58C51 58.5523 50.5523 59 50 59H15C14.4477 59 14 58.5523 14 58V6Z" fill="#343B47" stroke="#FFB800" stroke-width="2"/>
<path d="M13 6C13 5.44771 13.4477 5 14 5H40.4193C41.0354 5 41.5049 5.55171 41.4064 6.15986L40.6566 10.7901C40.343 12.7267 41.942 14.4383 43.8954 14.2569L49.9075 13.6986C50.4938 13.6442 51 14.1055 51 14.6943V32V58C51 58.5523 50.5523 59 50 59H14C13.4477 59 13 58.5523 13 58V6Z" fill="#343B47" stroke="#FFB800" stroke-width="2"/>
<path d="M30.3906 48.3125V52.2539C30.3906 52.3867 30.3698 52.5117 30.3281 52.6289C30.2891 52.7435 30.2331 52.8424 30.1602 52.9258C30.0872 53.0091 29.9987 53.0755 29.8945 53.125C29.7904 53.1719 29.6758 53.1953 29.5508 53.1953C29.3945 53.1953 29.2617 53.1745 29.1523 53.1328C29.043 53.0911 28.9544 53.0273 28.8867 52.9414C28.8346 52.8711 28.7956 52.7852 28.7695 52.6836C28.7435 52.582 28.7305 52.4635 28.7305 52.3281H27.6289C27.6315 52.6224 27.6797 52.8789 27.7734 53.0977C27.8672 53.3164 27.9987 53.4974 28.168 53.6406C28.3346 53.7865 28.5352 53.8958 28.7695 53.9688C29.0039 54.0417 29.2643 54.0781 29.5508 54.0781C29.8216 54.0781 30.0742 54.0339 30.3086 53.9453C30.5456 53.8568 30.7513 53.7318 30.9258 53.5703C31.1003 53.4089 31.237 53.2174 31.3359 52.9961C31.4375 52.7721 31.4896 52.5247 31.4922 52.2539L31.4883 48.3125H30.3906ZM35.4648 52.5156C35.4648 52.6172 35.444 52.7109 35.4023 52.7969C35.3607 52.8802 35.3008 52.9518 35.2227 53.0117C35.1445 53.0716 35.0482 53.1185 34.9336 53.1523C34.8216 53.1862 34.6927 53.2031 34.5469 53.2031C34.3828 53.2031 34.2318 53.1849 34.0938 53.1484C33.9583 53.112 33.8424 53.0547 33.7461 52.9766C33.6471 52.8984 33.5703 52.7982 33.5156 52.6758C33.4609 52.5534 33.431 52.4062 33.4258 52.2344H32.3477C32.3477 52.5286 32.4036 52.7852 32.5156 53.0039C32.6302 53.2227 32.7852 53.4128 32.9805 53.5742C33.1862 53.7383 33.4271 53.8633 33.7031 53.9492C33.9818 54.0326 34.263 54.0742 34.5469 54.0742C34.8359 54.0742 35.1029 54.0404 35.3477 53.9727C35.5924 53.9023 35.8034 53.7995 35.9805 53.6641C36.1576 53.5312 36.2956 53.3685 36.3945 53.1758C36.4961 52.9805 36.5469 52.7578 36.5469 52.5078C36.5469 52.2188 36.4805 51.9635 36.3477 51.7422C36.2148 51.5208 36.0365 51.3268 35.8125 51.1602C35.6641 51.0586 35.5013 50.9688 35.3242 50.8906C35.1471 50.8125 34.9609 50.7461 34.7656 50.6914C34.5833 50.6419 34.4193 50.5885 34.2734 50.5312C34.1302 50.474 34.0078 50.4102 33.9062 50.3398C33.8047 50.2721 33.7266 50.1953 33.6719 50.1094C33.6198 50.0234 33.5938 49.9271 33.5938 49.8203C33.5938 49.7188 33.6133 49.625 33.6523 49.5391C33.694 49.4505 33.7539 49.3737 33.832 49.3086C33.9102 49.2461 34.0052 49.1979 34.1172 49.1641C34.2318 49.1276 34.362 49.1094 34.5078 49.1094C34.6667 49.1094 34.8047 49.1315 34.9219 49.1758C35.0417 49.2174 35.1419 49.276 35.2227 49.3516C35.3008 49.4297 35.3594 49.5221 35.3984 49.6289C35.4401 49.7357 35.4635 49.8529 35.4688 49.9805H36.5391C36.5391 49.7253 36.4896 49.4909 36.3906 49.2773C36.2917 49.0638 36.1536 48.8789 35.9766 48.7227C35.7995 48.569 35.5872 48.4492 35.3398 48.3633C35.0951 48.2773 34.8242 48.2344 34.5273 48.2344C34.2409 48.2344 33.9753 48.2721 33.7305 48.3477C33.4857 48.4206 33.2734 48.526 33.0938 48.6641C32.9141 48.8021 32.7734 48.9688 32.6719 49.1641C32.5703 49.3594 32.5195 49.5768 32.5195 49.8164C32.5195 50.0247 32.5573 50.2174 32.6328 50.3945C32.7109 50.5716 32.8255 50.7331 32.9766 50.8789C33.1276 51.0247 33.3216 51.1589 33.5586 51.2812C33.7982 51.4036 34.0755 51.5078 34.3906 51.5938C34.5938 51.6484 34.763 51.7083 34.8984 51.7734C35.0365 51.8359 35.1484 51.9049 35.2344 51.9805C35.3177 52.0586 35.3763 52.1419 35.4102 52.2305C35.4466 52.319 35.4648 52.4141 35.4648 52.5156Z" fill="#FFB800"/>
<path d="M24.6953 34H26.0972L28.3047 28.1885H26.7471L25.4741 32.2866L25.3936 32.6948L25.313 32.2866L24.0347 28.1885H22.4771L24.6953 34ZM33.085 34H34.5996V33.9087C34.5244 33.7619 34.4671 33.5864 34.4277 33.3823C34.3883 33.1782 34.3687 32.9204 34.3687 32.6089V30.1167C34.3687 29.7801 34.306 29.4847 34.1807 29.2305C34.0553 28.9727 33.8817 28.7596 33.6597 28.5913C33.4377 28.423 33.1745 28.2959 32.8701 28.21C32.5693 28.124 32.2435 28.0811 31.8926 28.0811C31.5023 28.0811 31.1549 28.1312 30.8506 28.2314C30.5498 28.3281 30.2956 28.4606 30.0879 28.6289C29.8766 28.7972 29.7155 28.9924 29.6045 29.2144C29.4971 29.4364 29.4434 29.6709 29.4434 29.918H30.9365C30.9365 29.8141 30.9508 29.7192 30.9795 29.6333C31.0117 29.5474 31.0601 29.474 31.1245 29.4131C31.1961 29.3451 31.2892 29.2931 31.4038 29.2573C31.5184 29.2179 31.6545 29.1982 31.812 29.1982C31.991 29.1982 32.1468 29.2215 32.2793 29.2681C32.4154 29.311 32.5282 29.3737 32.6177 29.4561C32.7036 29.5348 32.7681 29.6297 32.811 29.7407C32.854 29.8481 32.8755 29.9699 32.8755 30.106V30.4497H32.043C31.6133 30.4497 31.2319 30.4891 30.8989 30.5679C30.5695 30.6431 30.292 30.7541 30.0664 30.9009C29.8158 31.062 29.6278 31.2679 29.5024 31.5186C29.3771 31.7656 29.3145 32.0503 29.3145 32.3726C29.3145 32.6232 29.3646 32.856 29.4648 33.0708C29.5651 33.2821 29.7048 33.4647 29.8838 33.6187C30.0628 33.7726 30.2759 33.8926 30.5229 33.9785C30.7736 34.0645 31.0475 34.1074 31.3447 34.1074C31.5273 34.1074 31.6974 34.0895 31.855 34.0537C32.0125 34.0215 32.1576 33.9749 32.29 33.9141C32.4189 33.8568 32.5371 33.7887 32.6445 33.71C32.752 33.6312 32.8468 33.547 32.9292 33.4575C32.9471 33.5614 32.9686 33.6598 32.9937 33.7529C33.0187 33.846 33.0492 33.9284 33.085 34ZM31.6616 32.9526C31.522 32.9526 31.3984 32.9365 31.291 32.9043C31.1872 32.8685 31.0994 32.8219 31.0278 32.7646C30.9562 32.7038 30.9007 32.6304 30.8613 32.5444C30.8255 32.4549 30.8076 32.3582 30.8076 32.2544C30.8076 32.1219 30.8327 32.0002 30.8828 31.8892C30.9329 31.7746 31.0099 31.6761 31.1138 31.5938C31.2176 31.515 31.3519 31.4541 31.5166 31.4111C31.6813 31.3646 31.88 31.3413 32.1128 31.3413H32.8755V32.3403C32.8325 32.4155 32.7734 32.4907 32.6982 32.5659C32.623 32.6375 32.5335 32.702 32.4297 32.7593C32.3258 32.8166 32.2095 32.8631 32.0806 32.8989C31.9517 32.9347 31.812 32.9526 31.6616 32.9526ZM40.2339 28.0811C39.8436 28.0811 39.4837 28.1759 39.1543 28.3657C38.8249 28.5519 38.542 28.8097 38.3057 29.1392L38.2949 29.0103L38.2358 28.1885H36.8447V34H38.3379V30.5088C38.4059 30.3441 38.4919 30.2008 38.5957 30.0791C38.6995 29.9574 38.8249 29.8571 38.9717 29.7783C39.0934 29.7103 39.2313 29.6602 39.3853 29.6279C39.5428 29.5921 39.7183 29.5742 39.9116 29.5742C40.0978 29.5742 40.293 29.5868 40.4971 29.6118C40.7048 29.6333 40.9071 29.6673 41.104 29.7139L41.3242 28.2261C41.2061 28.1903 41.0503 28.158 40.8569 28.1294C40.6672 28.0972 40.4595 28.0811 40.2339 28.0811Z" fill="white"/>
</svg>
