<svg width="64" height="64" viewBox="0 0 64 64" fill="none" xmlns="http://www.w3.org/2000/svg">
<path d="M13 6C13 5.44771 13.4477 5 14 5H42.0161C42.2589 5 42.4933 5.08827 42.6757 5.24836L47.2181 9.23432L50.6981 12.6273C50.8911 12.8155 51 13.0737 51 13.3433V32V58C51 58.5523 50.5523 59 50 59H14C13.4477 59 13 58.5523 13 58V6Z" fill="#343B47" stroke="#FF4D00" stroke-width="2"/>
<path d="M13 6C13 5.44771 13.4477 5 14 5H40.4193C41.0354 5 41.5049 5.55171 41.4064 6.15986L40.6566 10.7901C40.343 12.7267 41.942 14.4383 43.8954 14.2569L49.9075 13.6986C50.4938 13.6442 51 14.1055 51 14.6943V32V58C51 58.5523 50.5523 59 50 59H14C13.4477 59 13 58.5523 13 58V6Z" fill="#343B47" stroke="#FF4D00" stroke-width="2"/>
<path d="M29.1416 37.4609C27.501 37.0007 26.6807 35.9411 26.6807 34.2822V32.9219C26.6807 31.9603 26.2751 31.4795 25.4639 31.4795V30.0645C26.2568 30.0645 26.6624 29.611 26.6807 28.7041V27.2549C26.6807 26.4118 26.8857 25.7305 27.2959 25.2109C27.7061 24.6914 28.3213 24.3154 29.1416 24.083L29.5244 25.1836C29.1781 25.3112 28.916 25.5345 28.7383 25.8535C28.5605 26.168 28.4671 26.6055 28.458 27.166V28.6016C28.458 29.6315 28.0501 30.3538 27.2344 30.7686C28.0501 31.1878 28.458 31.9147 28.458 32.9492V34.3984C28.4808 35.4648 28.8363 36.1165 29.5244 36.3535L29.1416 37.4609ZM33.4756 36.3535C34.1683 36.1074 34.5238 35.4466 34.542 34.3711V32.9219C34.542 31.8919 34.959 31.1764 35.793 30.7754C34.959 30.3743 34.542 29.6475 34.542 28.5947V27.166C34.5238 26.1042 34.1683 25.4434 33.4756 25.1836L33.8584 24.083C34.6742 24.3109 35.2871 24.6846 35.6973 25.2041C36.1074 25.7191 36.3148 26.3958 36.3193 27.2344V28.7041C36.3376 29.611 36.7432 30.0645 37.5361 30.0645V31.4795C36.7249 31.4795 36.3193 31.9557 36.3193 32.9082V34.3916C36.2829 35.9867 35.4626 37.0098 33.8584 37.4609L33.4756 36.3535Z" fill="white"/>
<path d="M25.0859 48.2083V52.1497C25.0859 52.2825 25.0651 52.4075 25.0234 52.5247C24.9844 52.6393 24.9284 52.7383 24.8555 52.8216C24.7826 52.9049 24.694 52.9713 24.5898 53.0208C24.4857 53.0677 24.3711 53.0911 24.2461 53.0911C24.0898 53.0911 23.957 53.0703 23.8477 53.0286C23.7383 52.987 23.6497 52.9232 23.582 52.8372C23.5299 52.7669 23.4909 52.681 23.4648 52.5794C23.4388 52.4778 23.4258 52.3594 23.4258 52.2239H22.3242C22.3268 52.5182 22.375 52.7747 22.4688 52.9935C22.5625 53.2122 22.694 53.3932 22.8633 53.5364C23.0299 53.6823 23.2305 53.7916 23.4648 53.8646C23.6992 53.9375 23.9596 53.9739 24.2461 53.9739C24.5169 53.9739 24.7695 53.9297 25.0039 53.8411C25.2409 53.7526 25.4466 53.6276 25.6211 53.4661C25.7956 53.3047 25.9323 53.1133 26.0312 52.8919C26.1328 52.6679 26.1849 52.4206 26.1875 52.1497L26.1836 48.2083H25.0859ZM30.1602 52.4114C30.1602 52.513 30.1393 52.6068 30.0977 52.6927C30.056 52.776 29.9961 52.8476 29.918 52.9075C29.8398 52.9674 29.7435 53.0143 29.6289 53.0482C29.5169 53.082 29.388 53.0989 29.2422 53.0989C29.0781 53.0989 28.9271 53.0807 28.7891 53.0443C28.6536 53.0078 28.5378 52.9505 28.4414 52.8724C28.3424 52.7943 28.2656 52.694 28.2109 52.5716C28.1562 52.4492 28.1263 52.3021 28.1211 52.1302H27.043C27.043 52.4245 27.099 52.681 27.2109 52.8997C27.3255 53.1185 27.4805 53.3086 27.6758 53.47C27.8815 53.6341 28.1224 53.7591 28.3984 53.845C28.6771 53.9284 28.9583 53.97 29.2422 53.97C29.5312 53.97 29.7982 53.9362 30.043 53.8685C30.2878 53.7982 30.4987 53.6953 30.6758 53.5599C30.8529 53.4271 30.9909 53.2643 31.0898 53.0716C31.1914 52.8763 31.2422 52.6536 31.2422 52.4036C31.2422 52.1146 31.1758 51.8594 31.043 51.638C30.9102 51.4166 30.7318 51.2226 30.5078 51.056C30.3594 50.9544 30.1966 50.8646 30.0195 50.7864C29.8424 50.7083 29.6562 50.6419 29.4609 50.5872C29.2786 50.5377 29.1146 50.4844 28.9688 50.4271C28.8255 50.3698 28.7031 50.306 28.6016 50.2357C28.5 50.1679 28.4219 50.0911 28.3672 50.0052C28.3151 49.9193 28.2891 49.8229 28.2891 49.7161C28.2891 49.6146 28.3086 49.5208 28.3477 49.4349C28.3893 49.3463 28.4492 49.2695 28.5273 49.2044C28.6055 49.1419 28.7005 49.0937 28.8125 49.0599C28.9271 49.0234 29.0573 49.0052 29.2031 49.0052C29.362 49.0052 29.5 49.0273 29.6172 49.0716C29.737 49.1133 29.8372 49.1719 29.918 49.2474C29.9961 49.3255 30.0547 49.4179 30.0938 49.5247C30.1354 49.6315 30.1589 49.7487 30.1641 49.8763H31.2344C31.2344 49.6211 31.1849 49.3867 31.0859 49.1732C30.987 48.9596 30.849 48.7747 30.6719 48.6185C30.4948 48.4648 30.2826 48.345 30.0352 48.2591C29.7904 48.1732 29.5195 48.1302 29.2227 48.1302C28.9362 48.1302 28.6706 48.1679 28.4258 48.2435C28.181 48.3164 27.9688 48.4219 27.7891 48.5599C27.6094 48.6979 27.4688 48.8646 27.3672 49.0599C27.2656 49.2552 27.2148 49.4726 27.2148 49.7122C27.2148 49.9206 27.2526 50.1133 27.3281 50.2903C27.4062 50.4674 27.5208 50.6289 27.6719 50.7747C27.8229 50.9206 28.0169 51.0547 28.2539 51.1771C28.4935 51.2995 28.7708 51.4036 29.0859 51.4896C29.2891 51.5443 29.4583 51.6041 29.5938 51.6693C29.7318 51.7318 29.8438 51.8008 29.9297 51.8763C30.013 51.9544 30.0716 52.0377 30.1055 52.1263C30.1419 52.2148 30.1602 52.3099 30.1602 52.4114ZM35.9805 51.47V50.6419C35.9805 50.3841 35.9557 50.1406 35.9062 49.9114C35.8594 49.6823 35.7904 49.4713 35.6992 49.2786C35.6159 49.1094 35.5156 48.9544 35.3984 48.8138C35.2839 48.6732 35.1497 48.5534 34.9961 48.4544C34.8424 48.3502 34.6693 48.2708 34.4766 48.2161C34.2865 48.1588 34.082 48.1302 33.8633 48.1302C33.6471 48.1302 33.4466 48.1575 33.2617 48.2122C33.0768 48.2669 32.9102 48.345 32.7617 48.4466C32.6107 48.5508 32.4766 48.6758 32.3594 48.8216C32.2448 48.9674 32.1471 49.1302 32.0664 49.3099C31.9831 49.5 31.9193 49.707 31.875 49.931C31.8333 50.1549 31.8125 50.3919 31.8125 50.6419V51.47C31.8125 51.7044 31.8307 51.9271 31.8672 52.138C31.9062 52.3489 31.9622 52.5443 32.0352 52.7239C32.1159 52.9193 32.2161 53.095 32.3359 53.2513C32.4557 53.4049 32.5911 53.5364 32.7422 53.6458C32.8958 53.75 33.0664 53.8307 33.2539 53.888C33.4414 53.9453 33.6458 53.9739 33.8672 53.9739C34.0755 53.9739 34.2695 53.9479 34.4492 53.8958C34.6315 53.8463 34.7982 53.776 34.9492 53.6849C35.1159 53.5807 35.2643 53.4505 35.3945 53.2943C35.5247 53.138 35.6341 52.9661 35.7227 52.7786C35.806 52.5911 35.8698 52.388 35.9141 52.1693C35.9583 51.9479 35.9805 51.7148 35.9805 51.47ZM34.8672 50.6341V51.47C34.8672 51.6107 34.8594 51.7461 34.8438 51.8763C34.8307 52.0065 34.8099 52.1263 34.7812 52.2357C34.7448 52.3763 34.6953 52.5026 34.6328 52.6146C34.5729 52.7239 34.4987 52.8151 34.4102 52.888C34.3398 52.9479 34.2591 52.9935 34.168 53.0247C34.0768 53.056 33.9766 53.0716 33.8672 53.0716C33.7526 53.0716 33.6497 53.0547 33.5586 53.0208C33.4701 52.987 33.3906 52.9388 33.3203 52.8763C33.2448 52.806 33.1784 52.7148 33.1211 52.6028C33.0664 52.4883 33.0247 52.362 32.9961 52.2239C32.9701 52.1146 32.9518 51.9961 32.9414 51.8685C32.931 51.7409 32.9258 51.6081 32.9258 51.47V50.6341C32.9258 50.4883 32.931 50.3489 32.9414 50.2161C32.9544 50.0833 32.974 49.9609 33 49.8489C33.0339 49.7031 33.0807 49.5755 33.1406 49.4661C33.2031 49.3568 33.2786 49.2656 33.3672 49.1927C33.4323 49.1432 33.5052 49.1054 33.5859 49.0794C33.6693 49.0534 33.7617 49.0403 33.8633 49.0403C33.9701 49.0403 34.0664 49.0547 34.1523 49.0833C34.2409 49.112 34.3203 49.1523 34.3906 49.2044C34.4792 49.2747 34.556 49.3659 34.6211 49.4778C34.6862 49.5872 34.7383 49.7122 34.7773 49.8528C34.8086 49.9648 34.8307 50.0872 34.8438 50.22C34.8594 50.3502 34.8672 50.4883 34.8672 50.6341ZM40.5664 53.8958V48.2083H39.4648L39.4609 51.8607L37.8906 48.2083H36.7852V53.8958H37.8906V50.2278L39.4727 53.8958H40.5664Z" fill="#FF4D00"/>
</svg>
