<svg width="64" height="64" viewBox="0 0 64 64" fill="none" xmlns="http://www.w3.org/2000/svg">
<path d="M13 6C13 5.44771 13.4477 5 14 5H41.9887C42.2396 5 42.4814 5.09437 42.666 5.26437L50.6774 12.6415C50.883 12.8308 51 13.0976 51 13.3771V32V58C51 58.5523 50.5523 59 50 59H14C13.4477 59 13 58.5523 13 58V6Z" fill="#343B47" stroke="white" stroke-width="2"/>
<path d="M25.9805 53.1133V48.3125H24.8789V54H28.6445V53.1133H25.9805ZM33.5781 51.5742V50.7461C33.5781 50.4883 33.5534 50.2448 33.5039 50.0156C33.457 49.7865 33.388 49.5755 33.2969 49.3828C33.2135 49.2135 33.1133 49.0586 32.9961 48.918C32.8815 48.7773 32.7474 48.6576 32.5938 48.5586C32.4401 48.4544 32.2669 48.375 32.0742 48.3203C31.8841 48.263 31.6797 48.2344 31.4609 48.2344C31.2448 48.2344 31.0443 48.2617 30.8594 48.3164C30.6745 48.3711 30.5078 48.4492 30.3594 48.5508C30.2083 48.6549 30.0742 48.7799 29.957 48.9258C29.8424 49.0716 29.7448 49.2344 29.6641 49.4141C29.5807 49.6042 29.5169 49.8112 29.4727 50.0352C29.431 50.2591 29.4102 50.4961 29.4102 50.7461V51.5742C29.4102 51.8086 29.4284 52.0312 29.4648 52.2422C29.5039 52.4531 29.5599 52.6484 29.6328 52.8281C29.7135 53.0234 29.8138 53.1992 29.9336 53.3555C30.0534 53.5091 30.1888 53.6406 30.3398 53.75C30.4935 53.8542 30.6641 53.9349 30.8516 53.9922C31.0391 54.0495 31.2435 54.0781 31.4648 54.0781C31.6732 54.0781 31.8672 54.0521 32.0469 54C32.2292 53.9505 32.3958 53.8802 32.5469 53.7891C32.7135 53.6849 32.862 53.5547 32.9922 53.3984C33.1224 53.2422 33.2318 53.0703 33.3203 52.8828C33.4036 52.6953 33.4674 52.4922 33.5117 52.2734C33.556 52.0521 33.5781 51.819 33.5781 51.5742ZM32.4648 50.7383V51.5742C32.4648 51.7148 32.457 51.8503 32.4414 51.9805C32.4284 52.1107 32.4076 52.2305 32.3789 52.3398C32.3424 52.4805 32.293 52.6068 32.2305 52.7188C32.1706 52.8281 32.0964 52.9193 32.0078 52.9922C31.9375 53.0521 31.8568 53.0977 31.7656 53.1289C31.6745 53.1602 31.5742 53.1758 31.4648 53.1758C31.3503 53.1758 31.2474 53.1589 31.1562 53.125C31.0677 53.0911 30.9883 53.043 30.918 52.9805C30.8424 52.9102 30.776 52.819 30.7188 52.707C30.6641 52.5924 30.6224 52.4661 30.5938 52.3281C30.5677 52.2188 30.5495 52.1003 30.5391 51.9727C30.5286 51.8451 30.5234 51.7122 30.5234 51.5742V50.7383C30.5234 50.5924 30.5286 50.4531 30.5391 50.3203C30.5521 50.1875 30.5716 50.0651 30.5977 49.9531C30.6315 49.8073 30.6784 49.6797 30.7383 49.5703C30.8008 49.4609 30.8763 49.3698 30.9648 49.2969C31.0299 49.2474 31.1029 49.2096 31.1836 49.1836C31.2669 49.1576 31.3594 49.1445 31.4609 49.1445C31.5677 49.1445 31.6641 49.1589 31.75 49.1875C31.8385 49.2161 31.918 49.2565 31.9883 49.3086C32.0768 49.3789 32.1536 49.4701 32.2188 49.582C32.2839 49.6914 32.3359 49.8164 32.375 49.957C32.4062 50.069 32.4284 50.1914 32.4414 50.3242C32.457 50.4544 32.4648 50.5924 32.4648 50.7383ZM38.3242 53.3359L38.3203 51.0938H36.2852V51.9141H37.2266L37.2227 52.9453C37.194 52.9792 37.151 53.0117 37.0938 53.043C37.0391 53.0716 36.9753 53.0977 36.9023 53.1211C36.8294 53.1445 36.7513 53.1628 36.668 53.1758C36.5846 53.1888 36.5 53.1953 36.4141 53.1953C36.2734 53.1927 36.1471 53.1706 36.0352 53.1289C35.9258 53.0846 35.8294 53.0208 35.7461 52.9375C35.6966 52.888 35.651 52.832 35.6094 52.7695C35.5703 52.7044 35.5352 52.6341 35.5039 52.5586C35.4544 52.4284 35.4154 52.2786 35.3867 52.1094C35.3607 51.9401 35.3477 51.7526 35.3477 51.5469V50.7656C35.3477 50.6016 35.3568 50.4492 35.375 50.3086C35.3958 50.168 35.4245 50.0404 35.4609 49.9258C35.5078 49.7773 35.5664 49.6484 35.6367 49.5391C35.7096 49.4297 35.7904 49.3411 35.8789 49.2734C35.9466 49.224 36.0195 49.1862 36.0977 49.1602C36.1758 49.1341 36.2565 49.1211 36.3398 49.1211C36.4935 49.1211 36.625 49.1419 36.7344 49.1836C36.8464 49.2227 36.9388 49.2826 37.0117 49.3633C37.0768 49.4362 37.1276 49.526 37.1641 49.6328C37.2031 49.7396 37.2318 49.862 37.25 50H38.3203C38.2917 49.7266 38.2305 49.4805 38.1367 49.2617C38.0456 49.043 37.918 48.8568 37.7539 48.7031C37.5898 48.5521 37.388 48.4362 37.1484 48.3555C36.9115 48.2747 36.6328 48.2344 36.3125 48.2344C36.1042 48.2344 35.9062 48.263 35.7188 48.3203C35.5312 48.3776 35.3581 48.4622 35.1992 48.5742C35.0638 48.6732 34.9388 48.7904 34.8242 48.9258C34.7122 49.0612 34.6133 49.2135 34.5273 49.3828C34.4362 49.5729 34.3659 49.7852 34.3164 50.0195C34.2669 50.2513 34.2422 50.5026 34.2422 50.7734V51.5469C34.2422 51.8307 34.2669 52.0938 34.3164 52.3359C34.3685 52.5781 34.444 52.7956 34.543 52.9883C34.6289 53.1628 34.7331 53.3177 34.8555 53.4531C34.9805 53.5885 35.1185 53.7031 35.2695 53.7969C35.4232 53.888 35.5911 53.957 35.7734 54.0039C35.9583 54.0534 36.1549 54.0781 36.3633 54.0781C36.6029 54.0781 36.8268 54.056 37.0352 54.0117C37.2435 53.9674 37.4323 53.9089 37.6016 53.8359C37.7682 53.7656 37.9128 53.6862 38.0352 53.5977C38.1576 53.5091 38.2539 53.4219 38.3242 53.3359Z" fill="white"/>
<line x1="20" y1="33.5" x2="44" y2="33.5" stroke="white"/>
<line x1="20" y1="29.5" x2="44" y2="29.5" stroke="white"/>
<line x1="20" y1="25.5" x2="44" y2="25.5" stroke="white"/>
<line x1="20" y1="21.5" x2="39" y2="21.5" stroke="white"/>
<path d="M42 5L41.2779 11.1374C41.1328 12.3709 42.1352 13.4369 43.3752 13.368L50 13" stroke="white" stroke-width="2"/>
</svg>
