<svg width="64" height="64" viewBox="0 0 64 64" fill="none" xmlns="http://www.w3.org/2000/svg">
<path d="M13 6C13 5.44771 13.4477 5 14 5H42.0232C42.2638 5 42.4963 5.08674 42.6781 5.24431L46.7297 8.75569L50.6549 12.1576C50.8741 12.3475 51 12.6232 51 12.9133V32V58C51 58.5523 50.5523 59 50 59H14C13.4477 59 13 58.5523 13 58V6Z" fill="#343B47" stroke="#85B6FF" stroke-width="2"/>
<path d="M29.0547 48.3125H27.6914V54H28.6992V52.3164L28.6523 49.7617L29.3203 52.125H29.8633L30.6094 49.6562L30.5625 52.3164V54H31.5703V48.3125H30.207L29.5938 50.4492L29.0547 48.3125ZM32.4883 54H34.0156C34.2682 54 34.5052 53.9688 34.7266 53.9062C34.9505 53.8438 35.1549 53.7539 35.3398 53.6367C35.4987 53.5378 35.6445 53.4154 35.7773 53.2695C35.9102 53.1211 36.026 52.9596 36.125 52.7852C36.2292 52.5898 36.3099 52.375 36.3672 52.1406C36.4245 51.9062 36.4531 51.6576 36.4531 51.3945V50.9258C36.4531 50.6523 36.4219 50.3945 36.3594 50.1523C36.2995 49.9102 36.2135 49.6888 36.1016 49.4883C36.0052 49.3242 35.8919 49.1732 35.7617 49.0352C35.6341 48.8945 35.4883 48.776 35.3242 48.6797C35.1367 48.5625 34.9284 48.4727 34.6992 48.4102C34.4701 48.3451 34.224 48.3125 33.9609 48.3125H32.4883V54ZM33.5938 49.2031H33.9609C34.0938 49.2031 34.2161 49.2188 34.3281 49.25C34.4427 49.2786 34.5469 49.3203 34.6406 49.375C34.763 49.4479 34.8698 49.5417 34.9609 49.6562C35.0547 49.7708 35.1302 49.901 35.1875 50.0469C35.2344 50.1693 35.2695 50.3047 35.293 50.4531C35.319 50.599 35.332 50.7539 35.332 50.918V51.3945C35.332 51.569 35.319 51.7318 35.293 51.8828C35.2695 52.0312 35.2344 52.1667 35.1875 52.2891C35.1302 52.4297 35.0612 52.5534 34.9805 52.6602C34.9023 52.7643 34.8138 52.8503 34.7148 52.918C34.6185 52.9831 34.5117 53.0326 34.3945 53.0664C34.2773 53.1003 34.151 53.1172 34.0156 53.1172H33.5938V49.2031Z" fill="#85B6FF"/>
<path d="M38 31.0417H32H26L32 37L38 31.0417Z" fill="#85B6FF"/>
<path d="M32 11V31.0417M32 31.0417H38L32 37L26 31.0417H32Z" stroke="#85B6FF" stroke-width="4"/>
<path d="M41.5 5.5L40.7907 11.5286C40.6414 12.7978 41.7045 13.8796 42.9761 13.7524L50.5 13" stroke="#85B6FF" stroke-width="2"/>
</svg>
