<svg width="64" height="64" viewBox="0 0 64 64" fill="none" xmlns="http://www.w3.org/2000/svg">
	<circle cx="32" cy="32" r="20" fill="#343B47" stroke="white" stroke-width="2" />
	<path d="M27.0775 41.4775L27.0258 33.9843V29.1008M27.0258 29.1008L36.9742 26.9834M27.0258 29.1008V25.4709L36.9742 23.4039V26.9834M36.9742 26.9834V38.2309" stroke="white" stroke-width="2" />
	<path d="M37.5271 38.0353C37.5271 38.2382 37.3811 38.5162 36.9403 38.7713C36.5126 39.019 35.8885 39.1882 35.1721 39.1882C34.4557 39.1882 33.8316 39.019 33.4038 38.7713C32.9631 38.5162 32.8171 38.2382 32.8171 38.0353C32.8171 37.8324 32.9631 37.5544 33.4038 37.2992C33.8316 37.0516 34.4557 36.8824 35.1721 36.8824C35.8885 36.8824 36.5126 37.0516 36.9403 37.2992C37.3811 37.5544 37.5271 37.8324 37.5271 38.0353Z" fill="white" stroke="white" />
	<path d="M27.5496 41.34C27.5496 41.5426 27.4038 41.8204 26.9634 42.0753C26.536 42.3228 25.9123 42.4919 25.1964 42.4919C24.4805 42.4919 23.8569 42.3228 23.4295 42.0753C22.9891 41.8204 22.8433 41.5426 22.8433 41.34C22.8433 41.1374 22.9891 40.8597 23.4295 40.6047C23.8569 40.3572 24.4805 40.1882 25.1964 40.1882C25.9123 40.1882 26.536 40.3572 26.9634 40.6047C27.4038 40.8597 27.5496 41.1374 27.5496 41.34Z" fill="white" stroke="white" />
</svg>
