<svg width="64" height="64" viewBox="0 0 64 64" fill="none" xmlns="http://www.w3.org/2000/svg">
<path d="M13 6C13 5.44771 13.4477 5 14 5H41.9887C42.2396 5 42.4814 5.09437 42.666 5.26437L50.6774 12.6415C50.883 12.8308 51 13.0976 51 13.3771V32V58C51 58.5523 50.5523 59 50 59H14C13.4477 59 13 58.5523 13 58V6Z" fill="#343B47" stroke="#FF0000" stroke-width="2"/>
<path d="M26.4727 51.9141H27.3203C27.6302 51.9141 27.9102 51.8698 28.1602 51.7812C28.4102 51.6927 28.6237 51.569 28.8008 51.4102C28.9753 51.2539 29.1094 51.0677 29.2031 50.8516C29.2995 50.6354 29.3477 50.3997 29.3477 50.1445C29.3477 49.8711 29.2995 49.6224 29.2031 49.3984C29.1094 49.1745 28.9753 48.9818 28.8008 48.8203C28.6237 48.6615 28.4102 48.5378 28.1602 48.4492C27.9102 48.3581 27.6302 48.3125 27.3203 48.3125H25.375V54H26.4727V51.9141ZM26.4727 51.0234V49.2031H27.3203C27.4766 49.2031 27.612 49.2279 27.7266 49.2773C27.8411 49.3268 27.9375 49.3945 28.0156 49.4805C28.0911 49.5664 28.1471 49.6667 28.1836 49.7812C28.2227 49.8958 28.2422 50.0195 28.2422 50.1523C28.2422 50.2669 28.2227 50.3776 28.1836 50.4844C28.1471 50.5885 28.0911 50.681 28.0156 50.7617C27.9375 50.8424 27.8411 50.9062 27.7266 50.9531C27.612 51 27.4766 51.0234 27.3203 51.0234H26.4727ZM30.0859 54H31.6133C31.8659 54 32.1029 53.9688 32.3242 53.9062C32.5482 53.8438 32.7526 53.7539 32.9375 53.6367C33.0964 53.5378 33.2422 53.4154 33.375 53.2695C33.5078 53.1211 33.6237 52.9596 33.7227 52.7852C33.8268 52.5898 33.9076 52.375 33.9648 52.1406C34.0221 51.9062 34.0508 51.6576 34.0508 51.3945V50.9258C34.0508 50.6523 34.0195 50.3945 33.957 50.1523C33.8971 49.9102 33.8112 49.6888 33.6992 49.4883C33.6029 49.3242 33.4896 49.1732 33.3594 49.0352C33.2318 48.8945 33.0859 48.776 32.9219 48.6797C32.7344 48.5625 32.526 48.4727 32.2969 48.4102C32.0677 48.3451 31.8216 48.3125 31.5586 48.3125H30.0859V54ZM31.1914 49.2031H31.5586C31.6914 49.2031 31.8138 49.2188 31.9258 49.25C32.0404 49.2786 32.1445 49.3203 32.2383 49.375C32.3607 49.4479 32.4674 49.5417 32.5586 49.6562C32.6523 49.7708 32.7279 49.901 32.7852 50.0469C32.832 50.1693 32.8672 50.3047 32.8906 50.4531C32.9167 50.599 32.9297 50.7539 32.9297 50.918V51.3945C32.9297 51.569 32.9167 51.7318 32.8906 51.8828C32.8672 52.0312 32.832 52.1667 32.7852 52.2891C32.7279 52.4297 32.6589 52.5534 32.5781 52.6602C32.5 52.7643 32.4115 52.8503 32.3125 52.918C32.2161 52.9831 32.1094 53.0326 31.9922 53.0664C31.875 53.1003 31.7487 53.1172 31.6133 53.1172H31.1914V49.2031ZM38.5234 51.6445V50.7539H36.0859V49.207H38.8281V48.3125H34.9844V54H36.0859V51.6445H38.5234Z" fill="#FF0000"/>
<line x1="20" y1="43.5" x2="44" y2="43.5" stroke="white"/>
<line x1="20" y1="39.5" x2="44" y2="39.5" stroke="white"/>
<line x1="20" y1="35.5" x2="44" y2="35.5" stroke="white"/>
<line x1="20" y1="31.5" x2="44" y2="31.5" stroke="white"/>
<line x1="20" y1="27.5" x2="44" y2="27.5" stroke="white"/>
<line x1="20" y1="23.5" x2="44" y2="23.5" stroke="white"/>
<line x1="20" y1="19.5" x2="39" y2="19.5" stroke="white"/>
<path d="M41 5L40.2907 11.0286C40.1414 12.2978 41.2045 13.3796 42.4761 13.2524L50 12.5" stroke="#FF0000" stroke-width="2"/>
</svg>
