<svg width="64" height="64" viewBox="0 0 64 64" fill="none" xmlns="http://www.w3.org/2000/svg">
<path d="M50 59H14C13.4477 59 13 58.5523 13 58V6C13 5.44771 13.4477 5 14 5H41.9887C42.2396 5 42.4814 5.09437 42.666 5.26437L50.6774 12.6415C50.883 12.8308 51 13.0976 51 13.3771V32V58C51 58.5523 50.5523 59 50 59Z" fill="#343B47" stroke="#B63417" stroke-width="2"/>
<path d="M41 29.7349H33.5823V22.3172C39.2683 22.3172 40.8966 27.2623 41 29.7349Z" fill="#DE7A64" stroke="#DE7A64"/>
<path d="M23.5703 51.9141H24.418C24.7279 51.9141 25.0078 51.8698 25.2578 51.7812C25.5078 51.6927 25.7214 51.569 25.8984 51.4102C26.0729 51.2539 26.207 51.0677 26.3008 50.8516C26.3971 50.6354 26.4453 50.3997 26.4453 50.1445C26.4453 49.8711 26.3971 49.6224 26.3008 49.3984C26.207 49.1745 26.0729 48.9818 25.8984 48.8203C25.7214 48.6615 25.5078 48.5378 25.2578 48.4492C25.0078 48.3581 24.7279 48.3125 24.418 48.3125H22.4727V54H23.5703V51.9141ZM23.5703 51.0234V49.2031H24.418C24.5742 49.2031 24.7096 49.2279 24.8242 49.2773C24.9388 49.3268 25.0352 49.3945 25.1133 49.4805C25.1888 49.5664 25.2448 49.6667 25.2812 49.7812C25.3203 49.8958 25.3398 50.0195 25.3398 50.1523C25.3398 50.2669 25.3203 50.3776 25.2812 50.4844C25.2448 50.5885 25.1888 50.681 25.1133 50.7617C25.0352 50.8424 24.9388 50.9062 24.8242 50.9531C24.7096 51 24.5742 51.0234 24.418 51.0234H23.5703ZM28.375 51.9141H29.2227C29.5326 51.9141 29.8125 51.8698 30.0625 51.7812C30.3125 51.6927 30.526 51.569 30.7031 51.4102C30.8776 51.2539 31.0117 51.0677 31.1055 50.8516C31.2018 50.6354 31.25 50.3997 31.25 50.1445C31.25 49.8711 31.2018 49.6224 31.1055 49.3984C31.0117 49.1745 30.8776 48.9818 30.7031 48.8203C30.526 48.6615 30.3125 48.5378 30.0625 48.4492C29.8125 48.3581 29.5326 48.3125 29.2227 48.3125H27.2773V54H28.375V51.9141ZM28.375 51.0234V49.2031H29.2227C29.3789 49.2031 29.5143 49.2279 29.6289 49.2773C29.7435 49.3268 29.8398 49.3945 29.918 49.4805C29.9935 49.5664 30.0495 49.6667 30.0859 49.7812C30.125 49.8958 30.1445 50.0195 30.1445 50.1523C30.1445 50.2669 30.125 50.3776 30.0859 50.4844C30.0495 50.5885 29.9935 50.681 29.918 50.7617C29.8398 50.8424 29.7435 50.9062 29.6289 50.9531C29.5143 51 29.3789 51.0234 29.2227 51.0234H28.375ZM36.1914 49.207V48.3125H31.6055V49.207H33.3359V54H34.4375V49.207H36.1914ZM38.7422 50.3516L37.7461 48.3125H36.4648L38.0625 51.1328L36.4219 54H37.7188L38.7578 51.9297L39.8008 54H41.082L39.4414 51.1328L41.043 48.3125H39.7539L38.7422 50.3516Z" fill="#B63417"/>
<path d="M41 5L40.2907 11.0286C40.1414 12.2978 41.2045 13.3796 42.4761 13.2524L50 12.5" stroke="#B63417" stroke-width="2"/>
<path d="M41 32.1828C41 37.4296 36.7467 41.6828 31.5 41.6828C26.2533 41.6828 22 37.4296 22 32.1828C22 26.9361 26.2533 22.6828 31.5 22.6828C31.5 27.8132 31.5 29.7273 31.5 32.1828C31.5 32.1828 35.6089 32.1828 41 32.1828Z" fill="#B63417"/>
</svg>
