<svg width="64" height="64" viewBox="0 0 64 64" fill="none" xmlns="http://www.w3.org/2000/svg">
<path d="M50 59H14C13.4477 59 13 58.5523 13 58V6C13 5.44771 13.4477 5 14 5H41.9887C42.2396 5 42.4814 5.09437 42.666 5.26437L50.6774 12.6415C50.883 12.8308 51 13.0976 51 13.3771V32V58C51 58.5523 50.5523 59 50 59Z" fill="#343B47" stroke="#00FF38" stroke-width="2"/>
<path d="M42 5L41.2907 11.0286C41.1414 12.2978 42.2045 13.3796 43.4761 13.2524L51 12.5" stroke="#00FF38" stroke-width="2"/>
<path d="M26.7618 26.9466L37.2382 32.3698L26.7618 37.0533" stroke="#00FF38" stroke-width="2" stroke-linecap="round" stroke-linejoin="round"/>
<path d="M23.9531 52.8459C23.9531 52.9474 23.9323 53.0412 23.8906 53.1271C23.849 53.2104 23.7891 53.2821 23.7109 53.3419C23.6328 53.4018 23.5365 53.4487 23.4219 53.4826C23.3099 53.5164 23.181 53.5334 23.0352 53.5334C22.8711 53.5334 22.7201 53.5151 22.582 53.4787C22.4466 53.4422 22.3307 53.3849 22.2344 53.3068C22.1354 53.2287 22.0586 53.1284 22.0039 53.006C21.9492 52.8836 21.9193 52.7365 21.9141 52.5646H20.8359C20.8359 52.8589 20.8919 53.1154 21.0039 53.3341C21.1185 53.5529 21.2734 53.743 21.4688 53.9044C21.6745 54.0685 21.9154 54.1935 22.1914 54.2794C22.4701 54.3628 22.7513 54.4044 23.0352 54.4044C23.3242 54.4044 23.5911 54.3706 23.8359 54.3029C24.0807 54.2326 24.2917 54.1297 24.4688 53.9943C24.6458 53.8615 24.7839 53.6987 24.8828 53.506C24.9844 53.3107 25.0352 53.088 25.0352 52.838C25.0352 52.549 24.9688 52.2938 24.8359 52.0724C24.7031 51.8511 24.5247 51.6571 24.3008 51.4904C24.1523 51.3888 23.9896 51.299 23.8125 51.2209C23.6354 51.1427 23.4492 51.0763 23.2539 51.0216C23.0716 50.9722 22.9076 50.9188 22.7617 50.8615C22.6185 50.8042 22.4961 50.7404 22.3945 50.6701C22.293 50.6024 22.2148 50.5255 22.1602 50.4396C22.1081 50.3537 22.082 50.2573 22.082 50.1505C22.082 50.049 22.1016 49.9552 22.1406 49.8693C22.1823 49.7808 22.2422 49.7039 22.3203 49.6388C22.3984 49.5763 22.4935 49.5281 22.6055 49.4943C22.7201 49.4578 22.8503 49.4396 22.9961 49.4396C23.1549 49.4396 23.293 49.4617 23.4102 49.506C23.5299 49.5477 23.6302 49.6063 23.7109 49.6818C23.7891 49.7599 23.8477 49.8524 23.8867 49.9591C23.9284 50.0659 23.9518 50.1831 23.957 50.3107H25.0273C25.0273 50.0555 24.9779 49.8211 24.8789 49.6076C24.7799 49.394 24.6419 49.2091 24.4648 49.0529C24.2878 48.8992 24.0755 48.7794 23.8281 48.6935C23.5833 48.6076 23.3125 48.5646 23.0156 48.5646C22.7292 48.5646 22.4635 48.6024 22.2188 48.6779C21.974 48.7508 21.7617 48.8563 21.582 48.9943C21.4023 49.1323 21.2617 49.299 21.1602 49.4943C21.0586 49.6896 21.0078 49.9071 21.0078 50.1466C21.0078 50.355 21.0456 50.5477 21.1211 50.7248C21.1992 50.9018 21.3138 51.0633 21.4648 51.2091C21.6159 51.355 21.8099 51.4891 22.0469 51.6115C22.2865 51.7339 22.5638 51.838 22.8789 51.924C23.082 51.9787 23.2513 52.0386 23.3867 52.1037C23.5247 52.1662 23.6367 52.2352 23.7227 52.3107C23.806 52.3888 23.8646 52.4722 23.8984 52.5607C23.9349 52.6492 23.9531 52.7443 23.9531 52.8459ZM29.5586 54.3302V48.6427H28.4727V50.9748H26.8633V48.6427H25.7734V54.3302H26.8633V51.8654H28.4727V54.3302H29.5586ZM34.1094 51.838V50.9709H31.7734V49.5373H34.4922V48.6427H30.6719V54.3302H34.5039V53.4435H31.7734V51.838H34.1094ZM36.5898 53.4435V48.6427H35.4883V54.3302H39.2539V53.4435H36.5898ZM41.3945 53.4435V48.6427H40.293V54.3302H44.0586V53.4435H41.3945Z" fill="#00FF38"/>
</svg>
