<svg width="64" height="64" viewBox="0 0 64 64" fill="none" xmlns="http://www.w3.org/2000/svg">
<path d="M50 59H14C13.4477 59 13 58.5523 13 58V6C13 5.44771 13.4477 5 14 5H41.9887C42.2396 5 42.4814 5.09437 42.6661 5.26437L50.6774 12.6415C50.883 12.8308 51 13.0976 51 13.3771V32V58C51 58.5523 50.5523 59 50 59Z" fill="#343B47" stroke="white" stroke-width="2"/>
<path d="M42 5L41.2907 11.0286C41.1414 12.2978 42.2045 13.3796 43.4761 13.2524L51 12.5" stroke="white" stroke-width="2"/>
<path d="M40.5 37.6929C40.5 38.558 39.7586 39.4858 38.2255 40.227C36.7273 40.9514 34.6224 41.4133 32.2702 41.4133C29.9181 41.4133 27.8132 40.9514 26.315 40.227C24.7818 39.4858 24.0404 38.558 24.0404 37.6929C24.0404 36.8277 24.7818 35.8999 26.315 35.1587C27.8132 34.4344 29.9181 33.9724 32.2702 33.9724C34.6224 33.9724 36.7273 34.4344 38.2255 35.1587C39.7586 35.8999 40.5 36.8277 40.5 37.6929Z" fill="#343B47" stroke="#268AFF"/>
<path d="M40.4993 33.8976C40.4993 34.7628 39.7579 35.6906 38.2248 36.4318C36.7266 37.1561 34.6217 37.6181 32.2695 37.6181C29.9174 37.6181 27.8125 37.1561 26.3143 36.4318C24.7812 35.6906 24.0398 34.7628 24.0398 33.8976C24.0398 33.0325 24.7812 32.1046 26.3143 31.3634C27.8125 30.6391 29.9174 30.1771 32.2695 30.1771C34.6217 30.1771 36.7266 30.6391 38.2248 31.3634C39.7579 32.1046 40.4993 33.0325 40.4993 33.8976Z" fill="#343B47" stroke="#268AFF"/>
<path d="M40.4993 30.1024C40.4993 30.9675 39.7579 31.8954 38.2248 32.6366C36.7266 33.3609 34.6217 33.8229 32.2695 33.8229C29.9174 33.8229 27.8125 33.3609 26.3143 32.6366C24.7812 31.8954 24.0398 30.9675 24.0398 30.1024C24.0398 29.2372 24.7812 28.3094 26.3143 27.5682C27.8125 26.8439 29.9174 26.3819 32.2695 26.3819C34.6217 26.3819 36.7266 26.8439 38.2248 27.5682C39.7579 28.3094 40.4993 29.2372 40.4993 30.1024Z" fill="#343B47" stroke="#268AFF"/>
<path d="M40.4993 26.3071C40.4993 27.1723 39.7579 28.1001 38.2248 28.8413C36.7266 29.5657 34.6217 30.0276 32.2695 30.0276C29.9174 30.0276 27.8125 29.5657 26.3143 28.8413C24.7812 28.1001 24.0398 27.1723 24.0398 26.3071C24.0398 25.442 24.7812 24.5142 26.3143 23.773C27.8125 23.0486 29.9174 22.5867 32.2695 22.5867C34.6217 22.5867 36.7266 23.0486 38.2248 23.773C39.7579 24.5142 40.4993 25.442 40.4993 26.3071Z" fill="#343B47" stroke="#268AFF"/>
<path d="M24.0358 26.1093V37.8239M40.5052 26.1093V37.8239" stroke="#268AFF"/>
<path d="M28.2578 52.374C28.2578 52.4755 28.237 52.5693 28.1953 52.6552C28.1536 52.7386 28.0938 52.8102 28.0156 52.8701C27.9375 52.93 27.8411 52.9768 27.7266 53.0107C27.6146 53.0446 27.4857 53.0615 27.3398 53.0615C27.1758 53.0615 27.0247 53.0432 26.8867 53.0068C26.7513 52.9703 26.6354 52.913 26.5391 52.8349C26.4401 52.7568 26.3633 52.6565 26.3086 52.5341C26.2539 52.4117 26.224 52.2646 26.2188 52.0927H25.1406C25.1406 52.387 25.1966 52.6435 25.3086 52.8623C25.4232 53.081 25.5781 53.2711 25.7734 53.4326C25.9792 53.5966 26.2201 53.7216 26.4961 53.8076C26.7747 53.8909 27.056 53.9326 27.3398 53.9326C27.6289 53.9326 27.8958 53.8987 28.1406 53.831C28.3854 53.7607 28.5964 53.6578 28.7734 53.5224C28.9505 53.3896 29.0885 53.2268 29.1875 53.0341C29.2891 52.8388 29.3398 52.6162 29.3398 52.3662C29.3398 52.0771 29.2734 51.8219 29.1406 51.6005C29.0078 51.3792 28.8294 51.1852 28.6055 51.0185C28.457 50.9169 28.2943 50.8271 28.1172 50.749C27.9401 50.6709 27.7539 50.6044 27.5586 50.5498C27.3763 50.5003 27.2122 50.4469 27.0664 50.3896C26.9232 50.3323 26.8008 50.2685 26.6992 50.1982C26.5977 50.1305 26.5195 50.0537 26.4648 49.9677C26.4128 49.8818 26.3867 49.7854 26.3867 49.6787C26.3867 49.5771 26.4062 49.4834 26.4453 49.3974C26.487 49.3089 26.5469 49.2321 26.625 49.1669C26.7031 49.1044 26.7982 49.0563 26.9102 49.0224C27.0247 48.986 27.1549 48.9677 27.3008 48.9677C27.4596 48.9677 27.5977 48.9899 27.7148 49.0341C27.8346 49.0758 27.9349 49.1344 28.0156 49.2099C28.0938 49.288 28.1523 49.3805 28.1914 49.4873C28.2331 49.594 28.2565 49.7112 28.2617 49.8388H29.332C29.332 49.5836 29.2826 49.3492 29.1836 49.1357C29.0846 48.9222 28.9466 48.7373 28.7695 48.581C28.5924 48.4274 28.3802 48.3076 28.1328 48.2216C27.888 48.1357 27.6172 48.0927 27.3203 48.0927C27.0339 48.0927 26.7682 48.1305 26.5234 48.206C26.2786 48.2789 26.0664 48.3844 25.8867 48.5224C25.707 48.6604 25.5664 48.8271 25.4648 49.0224C25.3633 49.2177 25.3125 49.4352 25.3125 49.6748C25.3125 49.8831 25.3503 50.0758 25.4258 50.2529C25.5039 50.43 25.6185 50.5914 25.7695 50.7373C25.9206 50.8831 26.1146 51.0172 26.3516 51.1396C26.5911 51.262 26.8685 51.3662 27.1836 51.4521C27.3867 51.5068 27.556 51.5667 27.6914 51.6318C27.8294 51.6943 27.9414 51.7633 28.0273 51.8388C28.1107 51.9169 28.1693 52.0003 28.2031 52.0888C28.2396 52.1774 28.2578 52.2724 28.2578 52.374ZM34.1133 51.6044V50.6201C34.1133 50.4196 34.099 50.2281 34.0703 50.0459C34.0417 49.861 33.9987 49.6878 33.9414 49.5263C33.8633 49.2972 33.7565 49.0901 33.6211 48.9052C33.4857 48.7203 33.3281 48.5641 33.1484 48.4365C32.9896 48.3271 32.8125 48.2425 32.6172 48.1826C32.4219 48.1227 32.2122 48.0927 31.9883 48.0927C31.7643 48.0927 31.5573 48.1227 31.3672 48.1826C31.1771 48.2425 31.0052 48.3271 30.8516 48.4365C30.6823 48.5563 30.5365 48.7021 30.4141 48.874C30.2917 49.0432 30.194 49.2334 30.1211 49.4443C30.0586 49.6136 30.0104 49.7985 29.9766 49.999C29.9453 50.1969 29.9297 50.4039 29.9297 50.6201V51.6044C29.9297 51.7919 29.9466 51.9755 29.9805 52.1552C30.0143 52.3323 30.0638 52.5003 30.1289 52.6591C30.2018 52.8414 30.2969 53.012 30.4141 53.1709C30.5339 53.3297 30.6732 53.4664 30.832 53.581C30.9883 53.693 31.1628 53.7802 31.3555 53.8427C31.5482 53.9052 31.7591 53.9365 31.9883 53.9365C32.0898 53.9365 32.1875 53.93 32.2812 53.9169C32.3776 53.9039 32.4714 53.8857 32.5625 53.8623L33.6445 54.8623L34.3516 54.2334L33.4102 53.3818C33.5117 53.2854 33.6016 53.18 33.6797 53.0654C33.7604 52.9482 33.8294 52.8258 33.8867 52.6982C33.9596 52.5341 34.0143 52.3597 34.0508 52.1748C34.0898 51.9899 34.1107 51.7998 34.1133 51.6044ZM33 50.6123V51.6044C33 51.7086 32.9935 51.8128 32.9805 51.9169C32.9674 52.0185 32.9479 52.1175 32.9219 52.2138C32.8854 52.3414 32.8346 52.4612 32.7695 52.5732C32.707 52.6852 32.6302 52.7789 32.5391 52.8544C32.4661 52.9091 32.3841 52.9534 32.293 52.9873C32.2018 53.0185 32.1003 53.0341 31.9883 53.0341C31.8789 53.0341 31.7799 53.0185 31.6914 52.9873C31.6055 52.956 31.5299 52.9117 31.4648 52.8544C31.3737 52.7789 31.2982 52.6839 31.2383 52.5693C31.1784 52.4547 31.1328 52.3271 31.1016 52.1865C31.0807 52.0953 31.0651 52.0003 31.0547 51.9013C31.0469 51.8024 31.043 51.7034 31.043 51.6044V50.6123C31.043 50.4951 31.0469 50.3831 31.0547 50.2763C31.0625 50.1669 31.0742 50.0641 31.0898 49.9677C31.1159 49.8011 31.1576 49.6513 31.2148 49.5185C31.2747 49.3831 31.3542 49.2724 31.4531 49.1865C31.5208 49.1266 31.599 49.081 31.6875 49.0498C31.776 49.0185 31.8763 49.0029 31.9883 49.0029C32.1055 49.0029 32.2109 49.0198 32.3047 49.0537C32.401 49.0875 32.4857 49.1344 32.5586 49.1943C32.6341 49.2646 32.7018 49.3505 32.7617 49.4521C32.8216 49.5511 32.8672 49.6617 32.8984 49.7841C32.9349 49.9013 32.9609 50.0302 32.9766 50.1709C32.9922 50.3115 33 50.4586 33 50.6123ZM36.0898 52.9716V48.1709H34.9883V53.8584H38.7539V52.9716H36.0898Z" fill="#268AFF"/>
</svg>
