<svg width="64" height="64" viewBox="0 0 64 64" fill="none" xmlns="http://www.w3.org/2000/svg">
<path d="M13 6C13 5.44771 13.4477 5 14 5H41.9887C42.2396 5 42.4814 5.09437 42.666 5.26437L50.6774 12.6415C50.883 12.8308 51 13.0976 51 13.3771V32V58C51 58.5523 50.5523 59 50 59H14C13.4477 59 13 58.5523 13 58V6Z" fill="#343B47" stroke="white" stroke-width="2"/>
<path d="M28.9844 49.207V48.3125H24.3984V49.207H26.1289V54H27.2305V49.207H28.9844ZM31.5352 50.3516L30.5391 48.3125H29.2578L30.8555 51.1328L29.2148 54H30.5117L31.5508 51.9297L32.5938 54H33.875L32.2344 51.1328L33.8359 48.3125H32.5469L31.5352 50.3516ZM38.5938 49.207V48.3125H34.0078V49.207H35.7383V54H36.8398V49.207H38.5938Z" fill="white"/>
<line x1="20" y1="33.5" x2="44" y2="33.5" stroke="white"/>
<line x1="20" y1="29.5" x2="44" y2="29.5" stroke="white"/>
<line x1="20" y1="25.5" x2="44" y2="25.5" stroke="white"/>
<line x1="20" y1="21.5" x2="39" y2="21.5" stroke="white"/>
<path d="M42 5L41.2779 11.1374C41.1328 12.3709 42.1352 13.4369 43.3752 13.368L50 13" stroke="white" stroke-width="2"/>
</svg>
