<svg width="64" height="64" viewBox="0 0 64 64" fill="none" xmlns="http://www.w3.org/2000/svg">
<path d="M50 59H14C13.4477 59 13 58.5523 13 58V6C13 5.44771 13.4477 5 14 5H41.9887C42.2396 5 42.4814 5.09437 42.6661 5.26437L50.6774 12.6415C50.883 12.8308 51 13.0976 51 13.3771V32V58C51 58.5523 50.5523 59 50 59Z" fill="#343B47" stroke="#33C481" stroke-width="2"/>
<path d="M24.3281 50.3516L23.332 48.3125H22.0508L23.6484 51.1328L22.0078 54H23.3047L24.3438 51.9297L25.3867 54H26.668L25.0273 51.1328L26.6289 48.3125H25.3398L24.3281 50.3516ZM28.3828 53.1133V48.3125H27.2812V54H31.0469V53.1133H28.3828ZM34.9648 52.5156C34.9648 52.6172 34.944 52.7109 34.9023 52.7969C34.8607 52.8802 34.8008 52.9518 34.7227 53.0117C34.6445 53.0716 34.5482 53.1185 34.4336 53.1523C34.3216 53.1862 34.1927 53.2031 34.0469 53.2031C33.8828 53.2031 33.7318 53.1849 33.5938 53.1484C33.4583 53.112 33.3424 53.0547 33.2461 52.9766C33.1471 52.8984 33.0703 52.7982 33.0156 52.6758C32.9609 52.5534 32.931 52.4062 32.9258 52.2344H31.8477C31.8477 52.5286 31.9036 52.7852 32.0156 53.0039C32.1302 53.2227 32.2852 53.4128 32.4805 53.5742C32.6862 53.7383 32.9271 53.8633 33.2031 53.9492C33.4818 54.0326 33.763 54.0742 34.0469 54.0742C34.3359 54.0742 34.6029 54.0404 34.8477 53.9727C35.0924 53.9023 35.3034 53.7995 35.4805 53.6641C35.6576 53.5312 35.7956 53.3685 35.8945 53.1758C35.9961 52.9805 36.0469 52.7578 36.0469 52.5078C36.0469 52.2188 35.9805 51.9635 35.8477 51.7422C35.7148 51.5208 35.5365 51.3268 35.3125 51.1602C35.1641 51.0586 35.0013 50.9688 34.8242 50.8906C34.6471 50.8125 34.4609 50.7461 34.2656 50.6914C34.0833 50.6419 33.9193 50.5885 33.7734 50.5312C33.6302 50.474 33.5078 50.4102 33.4062 50.3398C33.3047 50.2721 33.2266 50.1953 33.1719 50.1094C33.1198 50.0234 33.0938 49.9271 33.0938 49.8203C33.0938 49.7188 33.1133 49.625 33.1523 49.5391C33.194 49.4505 33.2539 49.3737 33.332 49.3086C33.4102 49.2461 33.5052 49.1979 33.6172 49.1641C33.7318 49.1276 33.862 49.1094 34.0078 49.1094C34.1667 49.1094 34.3047 49.1315 34.4219 49.1758C34.5417 49.2174 34.6419 49.276 34.7227 49.3516C34.8008 49.4297 34.8594 49.5221 34.8984 49.6289C34.9401 49.7357 34.9635 49.8529 34.9688 49.9805H36.0391C36.0391 49.7253 35.9896 49.4909 35.8906 49.2773C35.7917 49.0638 35.6536 48.8789 35.4766 48.7227C35.2995 48.569 35.0872 48.4492 34.8398 48.3633C34.5951 48.2773 34.3242 48.2344 34.0273 48.2344C33.7409 48.2344 33.4753 48.2721 33.2305 48.3477C32.9857 48.4206 32.7734 48.526 32.5938 48.6641C32.4141 48.8021 32.2734 48.9688 32.1719 49.1641C32.0703 49.3594 32.0195 49.5768 32.0195 49.8164C32.0195 50.0247 32.0573 50.2174 32.1328 50.3945C32.2109 50.5716 32.3255 50.7331 32.4766 50.8789C32.6276 51.0247 32.8216 51.1589 33.0586 51.2812C33.2982 51.4036 33.5755 51.5078 33.8906 51.5938C34.0938 51.6484 34.263 51.7083 34.3984 51.7734C34.5365 51.8359 34.6484 51.9049 34.7344 51.9805C34.8177 52.0586 34.8763 52.1419 34.9102 52.2305C34.9466 52.319 34.9648 52.4141 34.9648 52.5156ZM38.7422 50.3516L37.7461 48.3125H36.4648L38.0625 51.1328L36.4219 54H37.7188L38.7578 51.9297L39.8008 54H41.082L39.4414 51.1328L41.043 48.3125H39.7539L38.7422 50.3516Z" fill="#33C481"/>
<path d="M41 5L40.2907 11.0286C40.1414 12.2978 41.2045 13.3796 42.4761 13.2524L50 12.5" stroke="#33C481" stroke-width="2"/>
<path d="M31.3859 19.5797H20.2835V43.5967H31.3859M31.3859 19.5797H42.4883V43.5967H31.3859M31.3859 19.5797V43.5967" stroke="#33C481"/>
<path d="M20.2835 39.6424H42.7164" stroke="#33C481"/>
<path d="M20.2835 35.6424H42.7164" stroke="#33C481"/>
<path d="M20.2835 31.6424H42.7164" stroke="#33C481"/>
<path d="M20.2835 27.6424H42.7164" stroke="#33C481"/>
<path d="M20.2835 23.6424H42.7164" stroke="#33C481"/>
</svg>
