<svg width="64" height="64" viewBox="0 0 64 64" fill="none" xmlns="http://www.w3.org/2000/svg">
<path d="M13 6C13 5.44771 13.4477 5 14 5H42.0592C42.2888 5 42.5115 5.07906 42.6897 5.22389L50.6306 11.6758C50.8643 11.8657 51 12.1508 51 12.4519V15V32V58C51 58.5523 50.5523 59 50 59H14C13.4477 59 13 58.5523 13 58V6Z" fill="#343B47" stroke="#DFC900" stroke-width="2"/>
<path d="M28.5 53C28.5 50.5147 30.5147 48.5 33 48.5H50.5V58C50.5 58.8284 49.8284 59.5 49 59.5H28.5V53Z" fill="#DFC900" stroke="#DFC900"/>
<path d="M33.9766 56.1133L36.7305 51.9648L36.7266 51.3125H32.6484V52.207H35.3984L32.6406 56.3281V57H36.7969V56.1133H33.9766ZM37.8516 51.3125V52.1992H38.9336V56.1172H37.8516V57H41.1406V56.1172H40.0312V52.1992H41.1406V51.3125H37.8516ZM43.582 54.9141H44.4297C44.7396 54.9141 45.0195 54.8698 45.2695 54.7812C45.5195 54.6927 45.7331 54.569 45.9102 54.4102C46.0846 54.2539 46.2188 54.0677 46.3125 53.8516C46.4089 53.6354 46.457 53.3997 46.457 53.1445C46.457 52.8711 46.4089 52.6224 46.3125 52.3984C46.2188 52.1745 46.0846 51.9818 45.9102 51.8203C45.7331 51.6615 45.5195 51.5378 45.2695 51.4492C45.0195 51.3581 44.7396 51.3125 44.4297 51.3125H42.4844V57H43.582V54.9141ZM43.582 54.0234V52.2031H44.4297C44.5859 52.2031 44.7214 52.2279 44.8359 52.2773C44.9505 52.3268 45.0469 52.3945 45.125 52.4805C45.2005 52.5664 45.2565 52.6667 45.293 52.7812C45.332 52.8958 45.3516 53.0195 45.3516 53.1523C45.3516 53.2669 45.332 53.3776 45.293 53.4844C45.2565 53.5885 45.2005 53.681 45.125 53.7617C45.0469 53.8424 44.9505 53.9062 44.8359 53.9531C44.7214 54 44.5859 54.0234 44.4297 54.0234H43.582Z" fill="white"/>
<path d="M19 9.5C19 9.22386 19.2239 9 19.5 9H27.5C27.7761 9 28 9.22386 28 9.5C28 9.77614 27.7761 10 27.5 10H19.5C19.2239 10 19 9.77614 19 9.5Z" fill="#DFC900"/>
<path d="M19 12.5C19 12.2239 19.2239 12 19.5 12H27.5C27.7761 12 28 12.2239 28 12.5C28 12.7761 27.7761 13 27.5 13H19.5C19.2239 13 19 12.7761 19 12.5Z" fill="#DFC900"/>
<path d="M19 15.5C19 15.2239 19.2239 15 19.5 15H27.5C27.7761 15 28 15.2239 28 15.5C28 15.7761 27.7761 16 27.5 16H19.5C19.2239 16 19 15.7761 19 15.5Z" fill="#DFC900"/>
<path d="M19 18.5C19 18.2239 19.2239 18 19.5 18H27.5C27.7761 18 28 18.2239 28 18.5C28 18.7761 27.7761 19 27.5 19H19.5C19.2239 19 19 18.7761 19 18.5Z" fill="#DFC900"/>
<path d="M19 21.5C19 21.2239 19.2239 21 19.5 21H27.5C27.7761 21 28 21.2239 28 21.5C28 21.7761 27.7761 22 27.5 22H19.5C19.2239 22 19 21.7761 19 21.5Z" fill="#DFC900"/>
<rect x="23.25" y="6.25" width="0.5" height="20.5" fill="white" stroke="#DFC900" stroke-width="0.5"/>
<path d="M22 30.5C22 30 22.5 27.5 23 27H24C24.4 27 24.6667 29.3333 25 30.5C25 31.5 22 31.5 22 30.5Z" stroke="#DFC900"/>
<path d="M41 5L40.2907 11.0286C40.1414 12.2978 41.2045 13.3796 42.4761 13.2524L50 12.5" stroke="#DFC900" stroke-width="2"/>
</svg>
